<?xml version="1.0" encoding="UTF-8" standalone="no"?>
<!-- Created with Inkscape (http://www.inkscape.org/) -->

<svg
   width="241.7865mm"
   height="95.239601mm"
   viewBox="0 0 241.7865 95.239603"
   version="1.1"
   id="svg5"
   xmlns="http://www.w3.org/2000/svg"
   xmlns:svg="http://www.w3.org/2000/svg">
  <defs
     id="defs2" />
  <g
     id="layer1"
     transform="translate(9.146454,-68.029945)">
    <path
       id="path2200"
       style="fill:#000000;stroke-width:2.27706"
       d="M 506.89844 0.01171875 C 504.02116 0.12661848 501.97467 1.1635923 495.73828 4.7714844 C 490.91916 7.5594487 486.44243 9.8398438 485.78906 9.8398438 C 483.75764 9.8398438 486.25897 11.522489 490.12891 12.757812 C 492.12491 13.394958 494.531 14.771594 495.47656 15.816406 C 496.96834 17.464836 497.03509 18.218866 495.9707 21.527344 C 494.69205 25.50171 489.03253 36.343453 485.75977 41.089844 C 483.76164 43.987672 484.6714 44.622714 488.15234 42.759766 C 489.2633 42.16528 490.38412 41.891821 490.64453 42.152344 C 490.90505 42.41287 488.50369 44.102281 485.30859 45.90625 C 482.11346 47.710219 477.64754 50.439288 475.38281 51.970703 C 471.75825 54.42167 471.04031 54.589462 469.38477 53.378906 C 468.35054 52.622525 467.72794 51.825538 468.00195 51.607422 C 468.27608 51.389294 470.07501 50.211789 472 48.990234 L 475.5 46.769531 L 471.75391 47.416016 C 469.27091 47.844455 466.62916 47.508236 463.91406 46.421875 C 461.28827 45.371151 458.50618 45.000054 456.16016 45.386719 C 451.0324 46.231859 453.56909 44.599221 463.21875 40.84375 C 471.85951 37.480927 476.28397 36.937015 475.35742 39.351562 C 474.94243 40.433018 475.23569 40.686591 476.38867 40.244141 C 477.98802 39.630886 478.47494 40.708594 478.01758 43.835938 C 477.84826 44.993743 478.27463 44.902939 479.90039 43.431641 C 481.05553 42.38625 482 41.102938 482 40.580078 C 482 40.057218 483.14919 38.262099 484.55469 36.591797 C 488.17642 32.287607 492.12508 24.140177 492.2207 20.771484 C 492.37408 15.377297 490.67421 14.580342 480.55078 15.302734 C 475.57265 15.657976 468.70359 15.912114 465.28516 15.869141 C 461.86676 15.826151 454.7293 16.698725 449.42383 17.806641 C 444.11835 18.914568 439.26479 19.565339 438.63867 19.253906 C 438.01256 18.942481 438.60857 19.660476 439.96289 20.847656 C 441.62679 22.306134 443.34331 22.870549 445.25586 22.589844 C 447.35013 22.282485 447.9498 22.530604 447.56055 23.544922 C 446.73888 25.686141 449.7441 26.242975 455.25586 24.970703 C 461.70604 23.481826 462.49844 24.26663 457.02148 26.71875 C 453.59349 28.253491 451.23386 28.535914 445.12305 28.140625 C 439.39548 27.770125 435.75963 28.136025 430.5 29.613281 L 423.5 31.580078 L 428.93164 33.210938 C 435.2766 35.115392 439.15546 35.285915 440.71289 33.728516 C 441.36146 33.079911 442.38277 32.964776 443.16211 33.453125 C 443.89749 33.913978 445.28751 34.160278 446.25 34.001953 C 447.21249 33.843606 448 34.140792 448 34.662109 C 448 36.707484 443.17016 38.556143 436.35938 39.117188 C 430.94441 39.563243 427.50409 40.568505 422.13281 43.273438 C 418.23676 45.235443 414.02664 46.8573 412.77539 46.876953 C 410.51016 46.912233 410.51087 46.916893 413 48.326172 C 414.37499 49.10466 417.48889 50.051187 419.91992 50.429688 C 423.95238 51.057508 424.17651 51.238875 422.47852 52.480469 C 420.16469 54.172408 420.36168 54.164351 426.4082 52.330078 C 429.10811 51.511032 431.99165 50.839844 432.81445 50.839844 C 436.07709 50.839844 430.663 54.795377 423.82031 57.410156 C 418.89691 59.291484 417.02892 60.47334 417.41016 61.466797 C 417.80447 62.494367 417.1835 62.810227 415.08594 62.650391 C 413.18759 62.505744 410.97433 63.427151 408.51172 65.386719 C 406.46982 67.011511 402.93263 69.326219 400.65039 70.53125 L 396.5 72.722656 L 402.5 72.738281 C 405.8 72.746581 410.3 72.105082 412.5 71.3125 C 417.70362 69.437832 417.72298 69.442296 415.16602 72.164062 C 413.96522 73.442359 413.30932 74.817149 413.71094 75.21875 C 414.6379 76.14574 412.07187 77.80614 409.67969 77.826172 C 407.45906 77.84484 399 83.52393 399 84.996094 C 399 85.57867 399.7875 85.780557 400.75 85.445312 C 402.2088 84.937272 402.17671 85.085469 400.55859 86.337891 C 399.49097 87.164247 397.91598 87.858055 397.05859 87.876953 C 396.20122 87.896453 394.43224 88.502938 393.12695 89.226562 L 390.75391 90.542969 L 393.12695 91.177734 C 397.03714 92.224323 400.50094 91.929381 402.55859 90.373047 C 404.4357 88.953267 406.95765 88.21616 405.72656 89.447266 C 405.39295 89.780847 405.63376 90.603126 406.26172 91.275391 C 407.05123 92.120531 408.65196 92.255895 411.45117 91.712891 C 416.76307 90.683045 417 90.683675 417 91.746094 C 417 92.244235 414.86251 94.074862 412.25 95.8125 C 407.99113 98.645407 406.85994 98.938959 401.31641 98.65625 C 395.56864 98.363299 395.24296 98.45908 396.66602 100.02734 C 397.50805 100.95518 397.90039 102.19265 397.53906 102.77734 C 396.04218 105.19934 379.2635 102.99277 374.79102 99.785156 C 371.55891 97.467134 370.27486 97.263095 372 99.341797 C 373.83743 101.55573 371.28694 101.31352 367.32617 98.898438 L 364.15234 96.962891 L 368.09766 89.152344 C 375.9918 73.52162 375.04898 64.236123 364.81445 56.822266 C 359.70099 53.118109 358.55141 53.058698 360.33984 56.591797 C 364.50166 64.813596 362.44342 72.428881 355.5 74.496094 C 350.73492 75.914762 341.06815 76.169305 339.10742 74.927734 C 338.29101 74.410797 337.94158 73.175081 338.26367 71.943359 C 339.15502 68.53483 337.35489 69.520953 333.89844 74.333984 C 330.79332 78.657775 322.70947 83.838144 319.05273 83.845703 C 318.19822 83.847703 316.15 84.659285 314.5 85.650391 C 306.01915 90.744627 288.58354 95.677595 278.12891 95.941406 C 272.27474 96.089148 270.38697 95.66205 264.90039 92.949219 C 261.38021 91.208709 256.34932 87.772141 253.7207 85.3125 C 250.83892 82.615989 247.99893 80.841797 246.56836 80.841797 C 245.26347 80.841797 239.53914 82.801461 233.84766 85.197266 C 213.10431 93.929114 202.3232 97.747826 194 99.310547 C 179.19453 102.09039 160.97242 103.84086 146.50586 103.87109 C 137.01059 103.89169 133.03268 104.21242 134.1543 104.86719 C 137.87891 107.04147 148.90063 109.03169 163.75781 110.21094 L 179.5 111.46094 L 171 114.08203 C 148.47859 121.02971 132.80563 123.70616 110 124.49805 C 75.264668 125.70421 42.005269 119.57123 13.572266 106.7168 C 7.4830298 103.96386 1.9374961 101.46813 1.25 101.16992 C 0.56250398 100.87191 0 101.08956 0 101.6543 C 0 104.26731 28.071694 121.98028 47.25 131.46875 C 57.069666 136.32703 58.859676 137.8418 54.785156 137.8418 C 52.810807 137.8418 52.734264 138.00383 54.080078 139.34961 C 57.296305 142.56584 68.692224 143.97435 96.152344 144.54688 C 110.81105 144.85245 123.41107 145.50285 124.15234 145.99219 C 125.2184 146.69597 125.01086 147.29208 123.15625 148.84766 C 119.58698 151.84146 113.717 153.08298 100 153.74609 C 88.325153 154.31049 87.737024 154.43524 91.083984 155.61914 C 98.744066 158.32868 111.30059 159.97166 130.31445 160.75391 C 141.21223 161.20223 150.55736 161.99876 151.08203 162.52344 C 152.47268 163.91408 145.51829 169.15875 136.83789 173.26562 C 120.74224 180.88084 100.94063 184.24163 75.441406 183.68555 C 65.923384 183.4779 58.655126 183.62775 59.289062 184.01953 C 61.365422 185.30295 59.169322 186.09571 55.462891 185.40039 C 53.157568 184.9679 52.007051 184.26394 52.310547 183.47266 C 52.642427 182.60779 50.036963 181.66992 43.794922 180.4082 C 38.848616 179.40837 28.433572 176.37071 20.650391 173.65625 C 2.8034229 167.4319 2 167.23183 2 169.04688 C 2 169.92671 6.3752287 172.37647 13.25 175.3457 C 19.437502 178.01813 24.711805 180.37331 24.970703 180.57812 C 26.058489 181.43759 22.219633 182.81105 18.691406 182.82617 C 13.345983 182.84767 14.793158 184.23051 23.792969 187.70117 C 34.655369 191.89017 49.315461 195.43835 64.226562 197.48633 C 76.274865 199.14044 77.154648 199.14079 80.726562 197.51172 L 84.5 195.79102 L 81.894531 198.06641 C 80.461183 199.31743 78.438287 200.83775 77.400391 201.44531 C 74.484069 203.15245 77.120486 205.49909 83.574219 206.94336 C 88.318773 208.00514 89.219885 207.94995 90.824219 206.49805 C 93.217529 204.33215 93.902935 204.40048 96.765625 207.08984 C 98.917045 209.11117 100.16958 209.33984 109.08008 209.33984 C 114.53575 209.33984 119 209.48277 119 209.65625 C 119 209.82992 118.53703 210.83833 117.9707 211.89648 C 115.68522 216.16693 108.39525 217.83377 102.73828 215.38086 C 99.57244 214.00813 101.94253 217.75852 105.37109 219.54688 C 110.36578 222.1521 131.79931 221.29878 140.8125 218.13672 C 143.34134 217.24955 134.96033 225.76494 131.53906 227.55859 C 129.91031 228.4125 126.31033 229.41684 123.53906 229.79102 L 118.5 230.4707 L 123.68359 232.08203 C 128.30142 233.51727 129.61004 233.53682 135.68359 232.26758 C 139.43292 231.48404 144.73022 229.74092 147.45703 228.39258 C 150.94527 226.66779 152.78037 226.24182 153.64453 226.95898 C 154.4814 227.6537 155.50962 227.63877 156.87109 226.91016 C 159.82529 225.32914 167.65687 225.61115 171.16602 227.42578 C 173.93583 228.85811 174.17754 229.35794 173.65625 232.57031 C 172.76075 238.08861 169.72071 240.63086 159.5 244.41016 C 155.32354 245.95462 160.82605 245.97661 169.69531 244.45117 C 177.07588 243.18182 178.89531 242.48428 180.93945 240.13867 C 182.29652 238.58147 183.08649 238.11601 182.7207 239.08984 C 181.90853 241.25204 182.87407 241.28392 190.33789 239.33984 C 196.24196 237.80199 200 237.42679 200 238.375 C 200 241.44148 191.97791 247.83984 188.13281 247.83984 C 185.06042 247.83984 185.50653 249.51391 188.74414 250.13281 C 192.12995 250.78006 201.10642 249.38844 204.20312 247.73633 C 207.1116 246.18468 215.35073 239.40389 219.875 234.83984 C 221.78322 232.91482 223.82925 231.32762 224.42188 231.3125 C 225.01446 231.2969 227.525 230.32232 230 229.14844 C 232.475 227.97455 236.02451 226.70149 237.88672 226.31836 C 241.1825 225.64031 241.25325 225.69473 240.58594 228.35352 C 239.55727 232.45204 232.27147 240.3915 225.42969 244.86914 C 218.69152 249.27894 218 249.50759 218 247.33984 C 218 245.11185 216.69319 245.50726 213.6875 248.64453 C 210.40991 252.06557 210.27824 253.17788 213.25 252.3457 C 215.42267 251.73727 215.4141 251.78574 213 253.74414 C 211.625 254.85959 209.2625 256.29198 207.75 256.92773 C 204.04766 258.48392 204.28833 259.64577 208.69336 261.48633 C 211.70672 262.7454 214.23715 262.87352 222.44336 262.1875 C 227.97472 261.72507 233.69278 261.45359 235.15039 261.58398 C 236.60799 261.7143 240.6047 260.9247 244.03125 259.83008 C 247.4578 258.73541 251.66501 257.82359 253.38086 257.80469 C 255.09671 257.78509 259.19493 257.12606 262.48828 256.33984 C 268.20524 254.97502 271 252.95477 271 250.18555 C 271 249.48501 271.91102 248.42348 273.02344 247.82812 C 274.89516 246.82648 275.00419 246.98178 274.48828 249.91016 C 273.95463 252.93922 274.0457 253.04486 276.65234 252.39062 C 278.15007 252.01479 279.89908 250.99364 280.53711 250.12109 C 281.17514 249.24848 282.21379 248.85356 282.8457 249.24414 C 283.47761 249.63468 287.5398 248.35495 291.87305 246.39844 C 301.04358 242.25781 302 242.11859 302 244.93555 C 302 248.58154 298.12104 252.66844 291.70703 255.7793 L 285.5 258.78906 L 289.72461 258.81641 C 292.87134 258.83541 296.19031 257.64604 302.72461 254.16211 C 327.39956 241.00591 334.75078 238.5199 342.86719 240.58008 C 345.13143 241.15494 346.73667 241.22282 346.43359 240.73242 C 344.55825 237.69803 361.12527 242.60794 370.30469 247.80664 C 376.65881 251.40524 377.09078 251.53487 374 248.91211 L 370.5 245.94141 L 376.52344 248.14062 C 379.83588 249.3506 384.90379 251.80431 387.78711 253.5918 C 393.1923 256.94303 394.05567 255.94827 391.95703 253.84961 C 390.07294 251.96552 391.75387 253.10542 395.25 252.58789 C 397.76698 252.2153 398.99762 252.64099 400.70312 254.47461 C 401.80485 255.65912 404.21913 257.11903 405.24414 257.42188 C 410.69585 260.26784 397.63012 268.70754 405.73438 264.31055 C 405.52533 265.33296 405.21867 266.1092 404.98047 267.0625 C 399.95962 272.17884 391.6665 274.95374 386.65625 276.8125 C 385.64203 280.65579 390.83707 280.41876 399.65625 280.99609 C 393.6526 291.63882 386.82558 294.33497 389.58203 296.80859 C 392.11964 297.91312 398.10769 297.87112 396.375 301.1875 C 393.01712 307.61462 393.24816 312.29611 396.74609 308.71289 C 398.23096 307.19186 401.37659 305.94727 403.73633 305.94727 C 406.98148 305.94727 407.60513 306.9299 406.29688 309.98047 C 403.23816 317.11221 402.5372 330.78372 405.00781 335.13672 C 407.16254 338.93329 407.41496 338.7656 407.47656 333.48828 C 407.54986 327.18645 411.2289 322.08008 415.69531 322.08008 C 417.20799 322.08008 419.65915 325.96937 421.14258 330.72266 C 424.45635 341.3409 431.9344 354.34375 434.72656 354.34375 C 435.86303 354.34375 436.79297 351.72563 436.79297 348.52539 C 436.79297 344.43942 438.46637 342.05585 442.41602 340.51758 C 443.45497 340.11294 444.35329 339.64033 445.11914 339.13867 C 446.8166 340.5916 449.43004 342.41601 452.05273 344.11328 C 454.90163 345.95693 458.65349 350.85574 460.59375 354.69922 C 464.66237 362.75872 464.87358 362.63385 474.07227 346.71289 C 477.87167 340.13697 482.54583 334.44789 484.45898 334.07031 C 486.37226 333.69274 491.31186 336.28394 495.43555 339.83008 C 501.11826 344.71689 502.55146 345.25254 501.35547 342.04297 C 500.48754 339.71395 499.14334 333.75235 498.36914 328.79297 C 496.82048 318.87212 498.74334 317.73061 509.76562 322.02344 C 514.41297 323.83342 515.53516 323.57868 515.53516 320.71875 C 515.53516 318.76549 514.48795 315.16073 513.20703 312.70898 C 511.14224 308.75685 511.65298 308.25195 517.70703 308.25195 C 523.82733 308.25195 535.06436 314.76193 524.53516 301.18555 C 514.00596 287.60917 521.68693 296.36605 528.99219 292.76758 C 536.2244 289.20509 527.87679 283.43662 520.25195 273.38477 C 529.28484 272.77706 534.62528 273.07187 533.59766 269.17773 C 526.02076 266.36678 510.93255 261.46378 511.01367 249.5293 C 511.12552 249.53333 511.22318 249.53986 511.4082 249.52734 C 518.99254 249.01623 520.10081 249.16725 521.88672 250.95312 C 523.99467 253.06108 526.88281 253.63667 526.88281 251.94922 C 526.88281 251.39923 528.34528 250.93088 530.13281 250.9082 C 534.43852 250.8533 558.32323 241.36821 558.74219 240.11133 C 558.92194 239.57203 560.22055 239.35042 561.62695 239.61914 C 563.57167 239.99089 563.86238 240.33609 562.8418 241.06055 C 561.91415 241.71894 562.27185 241.8212 564 241.38867 C 574.29233 238.81285 580.43661 240.10588 595.79102 248.08008 C 602.23042 251.42432 609.20992 255.04641 611.29883 256.12891 C 613.3877 257.2114 617.21272 258.27039 619.79883 258.48242 L 624.5 258.86914 L 620.04883 256.81055 C 610.9156 252.58681 604.13338 244.98272 608.25 243.58203 C 610.03859 242.97345 615.73057 244.67656 621.26758 247.47852 C 625.00772 249.37119 626.46238 249.66241 628.01758 248.83008 C 629.58457 247.99144 630 248.08386 630 249.26953 C 630 250.91049 632.94677 252.83984 635.45312 252.83984 C 636.64439 252.83984 636.88177 252.2188 636.41016 250.33984 C 635.51377 246.76823 637.44058 247.22719 639.74609 251.13477 C 641.98671 254.93236 645.72135 256.34683 657.43555 257.83203 C 661.62451 258.36313 666.04395 259.32796 667.25586 259.97656 C 668.46776 260.62517 672.39227 261.31512 675.97852 261.50977 C 679.5648 261.70452 688.35 262.22133 695.5 262.6582 L 695.5 262.66016 C 708.62883 263.46232 713.77372 263.23418 715.37695 261.78125 C 715.85941 261.34403 714.2844 260.45625 711.87695 259.80859 C 703.90858 257.66466 698 253.41423 698 249.82617 C 698 247.29498 693.90574 244.07823 689.69531 243.30078 C 684.38806 242.32083 674.22625 234.62637 672.36914 230.18164 C 671.55186 228.22539 671.10476 226.40305 671.375 226.13281 C 672.13083 225.37698 679.17846 227.89302 682.1582 229.98242 C 683.62077 231.00781 685.44904 231.60491 686.2207 231.30859 C 687.02661 230.99935 688.17368 231.7442 688.91602 233.05664 C 690.72486 236.25465 704.62058 247.07395 708.92773 248.63867 C 713.43565 250.27649 723.7471 250.4931 725.25781 248.98242 C 726.11433 248.12575 725.64702 247.8418 723.39453 247.8418 C 719.22998 247.8418 712.32033 243.19753 706.98828 236.81641 C 704.51995 233.86248 703.175 231.74106 704 232.10352 C 717.21092 237.90808 727.53934 241.58502 728.09766 240.68164 C 728.53472 239.97449 729.74571 240.31423 731.63086 241.67188 C 733.4462 242.97914 737.37176 244.12345 742.32227 244.78906 C 753.63159 246.30964 755.2897 246.03271 749 243.67383 C 743.05741 241.44512 733 232.68327 733 229.73438 C 733 226.52847 746.63191 224.82174 752.51758 227.29102 C 760.83424 230.7808 769.76204 231.98475 778.17969 230.75391 C 782.46798 230.12688 785.73092 229.21416 785.42969 228.72656 C 785.12835 228.23893 784.34644 227.83892 783.69141 227.83594 C 780.04257 227.81884 774.37101 225.27649 771.86719 222.53516 C 770.29022 220.80859 769 219.09229 769 218.72266 C 769 218.35298 770.68751 218.44293 772.75 218.92188 C 778.68923 220.30106 798.12289 219.97872 800.87109 218.45508 L 803.24414 217.13867 L 799.91992 216.47461 C 796.50213 215.79104 792 212.338 792 210.40039 C 792 209.65526 795.46149 209.42728 802.89453 209.68164 L 813.78711 210.05469 L 815.14453 207.27148 C 816.97688 203.51017 819 202.97847 819 206.25781 C 819 209.25029 818.9248 209.23565 825.54492 207.47266 C 831.17109 205.97434 835 204.16442 835 203.00195 C 835 202.5794 833.31249 201.24263 831.25 200.03125 L 827.5 197.82812 L 831.70703 198.45508 C 838.03196 199.3975 861.53947 195.61951 876.75781 191.21484 C 883.6135 189.23059 893.90066 185.03561 896.4707 183.17578 C 898.33155 181.82917 898.11183 181.76326 893.84766 182.37305 C 886.69218 183.39632 881.34948 180.8772 887.75 179.49805 C 891.278 178.73783 901 173.10444 901 171.82031 C 901 170.30287 899.65603 170.58251 888.77734 174.36914 C 871.07955 180.52932 857.06757 182.93818 835.34961 183.55273 C 814.32818 184.14756 803.5096 182.94421 787.00977 178.17773 C 776.81982 175.23405 761.01623 168.67729 755.57031 165.13281 C 752.02523 162.82552 751.80895 162.45255 753.35742 161.32031 C 754.64488 160.37887 759.28256 160.19783 771.92383 160.5957 C 788.10572 161.10507 788.8457 161.04383 790.56055 159.04102 C 791.95806 157.40883 792.75649 157.1748 794.23633 157.9668 C 795.56495 158.6778 796.55543 158.62454 797.56445 157.78711 C 798.67949 156.86177 799.33824 156.87613 800.51367 157.85156 C 802.70368 159.66915 819 157.09335 819 154.92969 C 819 154.47153 814.1625 153.85453 808.25 153.55859 C 796.42356 152.9668 791.35834 151.79599 787.83008 148.83594 C 785.97527 147.27983 785.77621 146.69776 786.85742 145.98438 C 787.60445 145.49145 799.97946 144.85573 814.35742 144.57227 C 828.73539 144.28865 843.19156 143.51636 846.48047 142.85547 C 853.33373 141.47832 859.35502 138.75592 857 138.09961 C 856.175 137.8697 854.93011 137.50443 854.23438 137.28711 C 853.53864 137.06979 858.93864 133.80614 866.23438 130.03516 C 873.53011 126.26417 884.53472 120.06537 890.68945 116.25977 C 901.77235 109.40695 914.54152 100.04933 913.80859 99.316406 C 913.59955 99.107361 908.94697 101.14824 903.4707 103.85352 C 897.99443 106.55875 887.43689 110.7926 880.00781 113.25977 C 834.9306 128.22965 785.99347 128.70711 741.5 114.61328 L 731.5 111.44531 L 742.5 110.66406 C 756.12043 109.69563 770.86298 107.34127 775.21484 105.43945 C 778.27819 104.10067 777.55872 103.9978 764.49414 103.92188 C 749.80399 103.83638 730.0168 101.91659 716.5 99.265625 C 708.29593 97.656642 695.5201 93.132903 677 85.277344 C 671.225 82.827794 665.50658 80.827118 664.29297 80.832031 C 663.0794 80.836831 660.15438 82.678708 657.79297 84.925781 C 655.43156 87.172862 649.89997 90.73103 645.5 92.832031 L 637.5 96.652344 L 629.17188 95.765625 C 619.19521 94.703817 609.00472 91.820278 599.5 87.371094 C 595.64998 85.568864 591.37503 83.755289 590 83.339844 C 584.42013 81.653933 579.81039 78.56124 576.91406 74.5625 C 573.48675 69.830683 570.0169 67.134553 571.91211 70.675781 C 573.41761 73.488842 573.37486 73.595226 570.03516 75.322266 C 568.10121 76.322348 567.26725 77.374594 567.64062 78.347656 C 568.44846 80.452846 566.27382 80.199936 563.27344 77.839844 C 561.87501 76.739846 559.86758 75.839844 558.81445 75.839844 C 556.04353 75.839844 551.36829 73.203988 549.56055 70.623047 C 547.65034 67.896008 547.62824 63.628576 549.49805 58.378906 C 550.27425 56.199959 550.78065 54.288352 550.62305 54.130859 C 550.46552 53.973351 548.26482 55.217124 545.73242 56.894531 C 540.54166 60.332733 536.98457 66.465329 537.02539 71.90625 C 537.03959 73.79511 538.19443 78.489847 539.5918 82.339844 C 543.39789 92.826237 543.5779 94.459767 541.07227 95.800781 C 538.82912 97.042417 534.48672 100.20543 528.64648 102.36719 C 507.28607 110.25162 519.71064 106.39304 507.28711 110.25195 L 502.07422 111.64062 L 497.65234 103.49023 C 493.15573 95.201784 493.24425 93.296336 498.00781 95.845703 C 500.07193 96.950421 500.08548 96.908631 498.60156 94.039062 C 497.76606 92.423394 494.8139 89.061411 492.04102 86.568359 C 489.26817 84.075345 487 81.589563 487 81.044922 C 487 79.615006 489.45687 78.885046 492.01758 79.554688 C 493.98327 80.068714 494.10512 79.906891 493.13477 78.09375 C 491.75943 75.523962 486.64295 71.178777 484.00586 70.341797 C 481.5249 69.554378 481.34764 66.839844 483.77734 66.839844 C 484.75496 66.839844 486.44251 67.423005 487.52734 68.134766 C 488.68256 68.892701 490.89463 69.203418 492.86523 68.884766 L 496.22852 68.339844 L 494.11523 66.435547 C 491.67264 64.235355 491.29922 60.839844 493.5 60.839844 C 494.4947 60.839844 495 59.844896 495 57.886719 C 495 54.661149 496.85836 49.839844 498.10156 49.839844 C 498.53084 49.839844 499.16022 50.289843 499.5 50.839844 C 500.41725 52.324034 502.01855 52.053312 501.42773 50.513672 C 500.19413 47.29887 506.59088 38.984317 514.42188 33.625 C 518.54507 30.803152 523 26.658688 523 25.644531 C 523 25.192727 520.52498 26.220533 517.5 27.927734 C 512.31332 30.854824 512 30.914735 512 28.992188 C 512 27.87087 512.81441 26.365173 513.81055 25.646484 C 517.37362 23.07588 517.16167 22.020165 513.3457 23.332031 C 511.35533 24.016281 509.31679 25.31135 508.81445 26.208984 C 508.31212 27.106622 506.61312 28.506342 505.03906 29.320312 C 503.00534 30.371985 502.31843 31.347769 502.66992 32.691406 C 503.03279 34.079041 502.50311 34.748404 500.67578 35.207031 C 499.30631 35.550745 497.38957 36.136915 496.41797 36.509766 C 495.09275 37.018252 494.80134 36.800719 495.24805 35.636719 C 495.57554 34.783252 495.46893 33.692411 495.01172 33.212891 C 494.55447 32.733371 496.1447 29.01218 498.54492 24.943359 C 505.87951 12.509874 512.93283 6.6209536 518.13867 8.5859375 C 521.98158 10.036259 521.99312 7.9841992 518.16797 3.703125 C 515.78872 1.0403118 514.46969 0.46603789 509.91797 0.1171875 C 509.28837 0.068935693 508.72249 0.032456805 508.19727 0.013671875 C 507.73769 -0.0027649529 507.30948 -0.0046954973 506.89844 0.01171875 z M 510.38477 6.0917969 L 506.23047 9.9648438 C 502.01735 13.894789 500.52575 14.459195 498.2168 12.994141 C 495.63708 11.357265 498.1911 9.0704922 504.25195 7.5898438 L 510.38477 6.0917969 z M 486.67188 20.839844 C 486.83462 20.839844 486.24609 22.352065 485.36523 24.199219 C 484.07226 26.910618 482.92079 27.750946 479.38281 28.560547 C 476.97257 29.112093 475 29.211915 475 28.783203 C 475 27.137249 476.25462 24.839844 477.1543 24.839844 C 477.67202 24.839844 479.95962 23.939845 482.23633 22.839844 C 484.51308 21.739842 486.50898 20.839844 486.67188 20.839844 z M 346.41797 99.460938 C 351.64556 99.385018 351.50211 100.29619 351.17188 108.57812 L 350.94336 114.31641 L 344.22656 114.53906 C 339.08313 114.70876 337.41454 114.51086 337.10547 113.70703 C 336.88342 113.1285 336.80227 109.75419 336.92578 106.20703 L 337.15039 99.757812 L 343.83398 99.535156 C 344.81508 99.502656 345.67117 99.471785 346.41797 99.460938 z M 246.45312 99.505859 C 246.82353 99.505679 247.1709 99.516004 247.49414 99.539062 L 250.55859 99.757812 L 250.55859 107.03711 L 250.55859 114.31641 L 244.14258 114.54102 C 239.08299 114.71752 237.43571 114.50312 236.35742 113.52734 C 235.09749 112.38714 234.78824 112.39113 232.42969 113.58984 C 224.07252 117.83803 213.90001 127.3712 208.95703 135.58789 C 204.68372 142.69147 200.60144 155.33313 201.67578 158.13281 C 201.8705 158.64006 202.7768 159.161 203.68945 159.29102 C 205.24994 159.51363 205.34766 159.93547 205.34766 166.38867 C 205.34766 173.07685 205.29866 173.26281 203.43164 173.70312 L 201.51758 174.15625 L 201.13281 198.64258 L 200.75 223.12891 L 192.88281 223.34766 C 186.61241 223.52217 184.92951 223.34566 184.5918 222.46875 C 184.35987 221.85955 184.30511 206.76219 184.4707 188.91602 C 184.75273 158.51694 184.87979 156.05612 186.45508 150.03125 C 191.68258 130.03793 205.3165 113.66077 223.89844 105.05664 C 229.92413 102.26652 239.51024 99.851819 245.27734 99.539062 C 245.68928 99.516724 246.08272 99.506039 246.45312 99.505859 z M 574.70117 99.755859 L 574.91992 106.85742 C 575.08395 112.1336 574.89032 114.03827 574.1543 114.26758 C 573.61156 114.43728 570.4684 114.79335 567.16797 115.05859 C 561.55677 115.50945 561.13982 115.43916 560.75586 113.9707 C 560.21542 111.90413 559.02902 111.99029 554.61328 114.41406 C 541.59666 121.55821 531.4837 134.11614 527.23438 148.41602 C 526.54556 150.734 525.65789 153.63901 525.26172 154.87109 C 524.0085 158.76847 525.0257 159.14453 536.81836 159.14453 C 542.64235 159.14453 547.59446 159.44822 547.82422 159.82031 C 548.12583 160.30859 548.51155 212.84077 548.28516 222.55469 C 548.27006 223.29521 543.85893 223.51367 528.85156 223.51367 C 518.17459 223.51367 509.20874 223.283 508.92773 223.00195 C 508.21529 222.28951 508.30824 210.31188 509.03516 209.16797 C 509.44754 208.5188 513.02316 208.1657 520.70898 208.01758 L 531.78906 207.80469 L 531.78906 190.94531 L 531.78906 174.08789 L 520.29297 173.70312 L 508.79883 173.32031 L 508.55273 170.30469 C 508.11469 164.93821 509.84654 150.45825 511.49219 145.73438 C 516.46548 131.45838 524.66284 120.14073 536.00195 111.89648 C 540.70569 108.47658 552.35658 102.44501 554.29102 102.42773 C 554.97972 102.42373 557.05066 101.89154 558.89258 101.25 C 560.73453 100.60858 565.04445 100.00995 568.4707 99.919922 L 574.70117 99.755859 z M 297.49023 114.8125 C 298.16106 114.81199 298.90226 114.82872 299.7207 114.85938 L 305.73242 115.08594 L 306.46484 117.57617 L 307.19922 120.06641 L 313.875 120.06641 C 317.54652 120.06641 321.09507 120.27541 321.76172 120.53125 C 322.83157 120.9416 322.97258 123.79768 322.95898 144.86133 C 322.94268 169.838 322.31725 178.06756 320.32617 179.52344 C 318.9145 180.55566 306.00267 181.50691 305.10742 180.64453 C 304.76322 180.31307 305.10442 178.01276 305.86719 175.5332 C 307.02615 171.76603 307.25549 168.25288 307.25977 154.16602 L 307.26562 137.30859 L 299.21875 137.30859 L 291.17383 137.30859 L 290.9707 160.00977 L 290.76758 182.71094 L 283.96484 183.95703 C 276.09026 185.39779 276.63155 185.34641 275.97461 184.68945 C 275.69364 184.40863 275.46289 173.21108 275.46289 159.80664 L 275.46289 135.43555 L 272.97266 134.79102 L 270.48242 134.14453 L 270.48242 127.29688 L 270.48242 120.44922 L 281.01953 120.23633 C 291.50691 120.0243 291.55664 120.01472 291.55664 118.22266 C 291.55664 115.64882 292.79448 114.8161 297.49023 114.8125 z M 604.20312 120.00781 L 604.20312 148.00586 C 604.20312 163.40441 604.20603 176.26212 604.20703 176.57812 C 604.20903 176.89409 600.92544 177.25233 596.91211 177.37305 C 591.49408 177.53632 589.51824 177.33375 589.23633 176.60156 C 589.02732 176.05739 588.94748 163.19987 589.05859 148.0293 L 589.25977 120.44727 L 596.73242 120.22656 L 604.20312 120.00781 z M 467.79492 120.06445 C 472.3762 120.06445 472.40039 120.11915 472.40039 130.85938 C 472.40039 142.30892 472.85513 141.76744 463.57227 141.36719 L 458.22461 141.13672 L 457.8418 138.23828 C 457.6309 136.64385 457.11286 135.319 456.69141 135.29492 C 455.25636 135.21332 452.10098 137.8619 448.93555 141.80273 C 442.75012 149.5036 440.2168 156.58755 440.2168 166.18555 C 440.2168 170.95811 439.92996 173.07443 439.25781 173.28125 C 438.73098 173.44339 435.48767 173.76442 432.04883 173.99414 C 427.07191 174.32712 425.6016 174.17787 424.84766 173.26953 C 423.46731 171.5996 424.53998 157.0357 426.44336 151.62109 C 430.58961 139.82424 439.0109 130.21961 450.0918 124.64844 C 452.78051 123.29661 465.26328 120.06445 467.79492 120.06445 z M 661.63672 120.0918 C 665.64946 120.22163 665.5418 121.57309 665.34375 127.55859 L 665.12305 134.24219 L 660.52539 134.47656 C 657.99666 134.60544 655.61527 135.01954 655.23438 135.39844 C 654.82248 135.80825 655.32088 137.11126 656.46289 138.61328 C 663.03727 147.26163 665.50446 156.78468 665.50586 173.51562 C 665.50665 186.0615 666.653 184.82235 656.31055 183.45117 C 653.14965 183.03214 650.42353 182.56983 650.25391 182.42383 C 650.08421 182.27756 649.8683 177.23832 649.77344 171.22656 C 649.57766 158.82888 648.08993 152.58338 643.70508 145.76367 C 640.74121 141.1542 634.96179 135.23418 634.00391 135.82617 C 633.6286 136.05823 633.32227 146.06648 633.32227 158.06641 C 633.32227 175.96765 633.1302 179.95825 632.25781 180.29297 C 631.67301 180.51747 628.31156 180.42093 624.78711 180.07812 L 618.37891 179.45312 L 618.37891 149.95117 L 618.37891 120.44922 L 621.1582 120.2168 C 624.58487 119.93069 635.2845 122.59401 639.6582 124.82227 C 641.44112 125.7306 644.39742 127.48455 646.22656 128.71875 C 648.07853 129.96834 649.84216 130.66969 650.20703 130.30273 C 650.5676 129.9399 650.9672 127.57557 651.0957 125.04688 L 651.33008 120.44922 L 656.67773 120.21875 C 657.80633 120.17005 658.79161 120.12595 659.65234 120.10156 C 660.40549 120.08023 661.06347 120.07325 661.63672 120.0918 z M 720.57812 120.11328 C 721.9323 120.09828 722.92374 120.29888 723.57617 120.71289 C 724.31053 121.17911 724.50303 123.83135 724.3418 131.23828 L 724.12695 141.13867 L 717.23047 141.13867 L 710.33398 141.13867 L 710.08789 138.45703 C 709.95258 136.98192 709.55637 135.48127 709.20703 135.12305 C 708.8578 134.76513 706.44187 136.60305 703.83789 139.20703 C 699.58947 143.45548 695.8926 149.61173 693.625 156.2168 C 692.77529 158.69212 694.92207 159.10851 709.625 159.32031 L 724.12695 159.5293 L 724.33398 176.96289 L 724.53906 194.39648 L 720.35547 194.39648 C 718.05438 194.39648 715.98601 194.0964 715.75977 193.73047 C 715.53375 193.36423 713.96735 192.84415 712.2793 192.57422 C 708.62332 191.9896 708.49551 191.63335 708.22656 181.36914 L 708.03516 174.08984 L 692.32617 173.70703 L 676.61719 173.32422 L 676.87695 166.04297 C 677.13283 158.86198 678.37888 152.63889 680.50781 147.91992 C 681.10694 146.59183 681.59766 145.25741 681.59766 144.95312 C 681.59766 144.64891 683.13577 142.24382 685.01562 139.60938 C 691.12671 131.04553 699.89378 125.02568 710.66211 121.99805 C 715.05562 120.76275 718.32121 120.13826 720.57812 120.11328 z M 368.86523 120.13477 C 374.20109 120.11267 384.71838 123.21839 391.5625 127.37305 C 394.66092 129.25385 397.39259 130.79297 397.63281 130.79297 C 397.873 130.79297 398.07557 128.81011 398.08203 126.38672 C 398.08803 123.96332 398.37545 121.53449 398.7207 120.99023 C 399.17545 120.2734 401.23298 120.06288 406.18164 120.22461 L 413.01367 120.44727 L 413.24414 125.79492 C 413.61491 134.39263 413.46894 134.62305 407.67969 134.62305 C 402.19374 134.62305 401.04873 135.46607 403.17578 137.9375 C 405.59915 140.75325 407.60357 144.0277 409.35547 148.0332 C 412.73461 155.75924 414.64509 171.71319 412.41211 173.56641 C 410.84602 174.86611 398.05233 174.91108 397.23438 173.61914 C 396.86383 173.03396 396.5571 169.27923 396.55273 165.27539 C 396.54273 156.60073 395.32171 152.47699 390.60547 145.20117 C 387.43773 140.31424 383.44494 136.15625 381.91992 136.15625 C 381.50595 136.15625 381.21094 144.25707 381.21094 155.68164 L 381.21094 175.20703 L 379.48828 175.56641 C 378.53999 175.76445 375.1372 176.13982 371.92773 176.40234 C 366.92598 176.81114 366.02247 176.69982 365.60547 175.61328 C 364.98366 173.99292 364.96364 122.8925 365.58398 121.27539 C 365.88305 120.49605 367.08661 120.14214 368.86523 120.13477 z M 258.58008 120.1543 C 260.03949 120.2141 261.09687 120.52398 261.58594 121.11328 C 262.20993 121.86518 262.39763 131.19473 262.25391 154.24414 L 262.05273 186.33008 L 260.05859 187.28711 C 258.96085 187.81314 255.51138 188.33355 252.39453 188.44531 L 246.72852 188.65039 L 246.34375 181.36914 L 245.96094 174.08984 L 238.29883 174.08984 L 230.63477 174.08984 L 230.25195 183.65234 C 229.81911 194.45514 230.75522 193.11444 222.20703 195.19141 C 215.10273 196.91752 214.96602 196.92435 214.47266 195.63867 C 213.49861 193.1003 214.72969 158.1575 215.93359 154.16602 C 219.83946 141.2166 228.40836 130.58067 239.05273 125.46875 C 246.20184 122.03548 254.20184 119.97483 258.58008 120.1543 z M 331.78711 120.44727 L 341.74805 120.44727 L 351.70898 120.44727 L 351.91016 148.62891 C 352.06829 170.79277 351.90516 176.87452 351.14453 177.10938 C 350.61251 177.27337 347.16044 177.61068 343.47266 177.85938 C 338.3907 178.20147 336.74818 178.07844 336.67773 177.34961 C 336.62853 176.81875 336.54249 167.24778 336.48633 156.08008 L 336.38477 135.77344 L 333.86719 135.0332 L 331.34961 134.29102 L 331.56836 127.36914 L 331.78711 120.44727 z M 557.07617 120.44727 L 567.41992 120.44727 L 577.76562 120.44727 L 577.76562 127.29492 L 577.76562 134.14258 L 575.21094 134.80469 L 572.65625 135.4668 L 572.91211 156.11914 C 573.05271 167.47753 573.16797 176.72362 573.16797 176.66602 C 573.16797 176.60852 569.90552 176.25295 565.91797 175.875 C 561.77992 175.48261 558.42237 174.7904 558.0957 174.26172 C 556.91657 172.35393 556.6226 165.03031 556.8457 143.05273 L 557.07617 120.44727 z M 245.58008 136.1582 C 245.15985 136.1582 243.4374 137.40504 241.75195 138.92773 C 238.31099 142.03643 234.21251 148.48035 232.14062 154.04102 C 230.96349 157.20028 230.92078 157.84889 231.84766 158.43555 C 233.07082 159.20971 243.26477 159.39896 245.13281 158.68164 C 246.16041 158.28725 246.34375 156.53779 246.34375 147.1875 C 246.34375 140.3667 246.05265 136.1582 245.58008 136.1582 z M 457.41211 159.26172 C 458.70958 159.25472 460.26349 159.2722 462.11523 159.3125 L 472.01758 159.52734 L 472.24219 165.07227 C 472.59142 173.68494 472.56714 173.70508 461.39062 173.70508 C 456.20746 173.70508 451.73609 173.47441 451.45508 173.19336 C 450.72741 172.46565 450.84271 161.25601 451.58984 160.07812 C 451.93953 159.52739 453.51969 159.28245 457.41211 159.26172 z M 461.36328 179.74219 C 465.10644 179.71539 468.7212 180.10232 469.03711 180.92578 C 469.47357 182.06259 466.94389 187.04768 463.0918 192.64648 L 460.83398 195.92773 L 464.89453 195.93945 C 472.38276 195.95835 472.40234 195.97685 472.40234 203.14453 C 472.40234 207.0001 472.04746 209.7706 471.48242 210.33594 C 470.52786 211.29049 461.24281 211.63064 459.05469 210.79102 C 458.12594 210.43461 457.84375 209.18976 457.84375 205.4707 C 457.84375 202.80115 457.49066 200.40058 457.06055 200.13477 C 456.63074 199.86906 455.25855 200.50925 454.01172 201.55859 C 447.71113 206.86017 427.64085 212.92995 425.0332 210.32227 L 425.03125 210.32031 C 423.74855 209.03765 423.75922 182.03969 425.04492 180.75586 C 425.60875 180.19195 428.36593 179.83594 432.17188 179.83594 C 435.97771 179.83594 438.73496 180.19233 439.29883 180.75586 C 439.86527 181.32226 440.21875 184.10031 440.21875 187.99023 C 440.21875 191.46351 440.48188 194.4683 440.80469 194.66797 C 442.05635 195.44156 451.71289 185.17306 451.71289 183.06836 C 451.71289 182.61497 452.25373 181.7033 452.91602 181.04102 C 453.74753 180.20948 457.62012 179.76899 461.36328 179.74219 z M 402.66602 180.72461 C 403.60564 180.71361 404.66701 180.72757 405.84766 180.76367 L 413.01367 180.98438 L 413.2207 195.31641 C 413.41081 208.38359 413.3102 209.70984 412.07227 210.3457 C 409.85595 211.48413 392.92355 211.4499 392.1875 210.30469 C 391.27701 208.8832 391.95092 197.17919 392.98242 196.50977 C 393.46271 196.19795 394.27574 196.09754 394.78906 196.28516 C 396.35517 196.85843 396.73517 195.26554 396.60547 188.68164 C 396.51347 184.01048 396.76797 182.13067 397.58203 181.45508 C 398.12594 181.00366 399.84715 180.75761 402.66602 180.72461 z M 562.83789 181.44531 C 563.98278 181.38861 565.57094 181.46991 567.66406 181.60742 C 576.32307 182.1762 577.10982 182.44898 578.65625 185.43945 C 580.28266 188.58466 585.56235 194.15102 587.36719 194.62305 C 588.68001 194.96585 588.8354 194.45554 589.03711 189.14258 L 589.25977 183.28516 L 596.29102 183.28906 C 600.1583 183.29206 603.60778 183.57926 603.95508 183.92773 C 604.30204 184.27583 604.58594 190.11018 604.58594 196.89258 C 604.58594 206.09157 604.32982 209.48264 603.57422 210.23828 C 603.01723 210.79535 602.32705 211.21477 602.04102 211.17188 C 601.75528 211.13068 598.65871 210.61423 595.16016 210.02734 L 595.16016 210.03125 C 587.40895 208.73113 582.31515 206.6701 576.125 202.33203 C 570.68305 198.51822 565.88776 193.34177 562.74414 187.88281 C 559.94762 183.02672 559.40331 181.61546 562.83789 181.44531 z M 380.82812 181.75 L 381.03906 195.44336 C 381.16201 203.47433 380.94076 209.50523 380.50586 210.0293 C 379.46014 211.28928 367.26322 211.55865 366.05273 210.34766 C 364.71444 209.00933 364.73777 184.16596 366.07812 183.07031 C 366.60495 182.64001 370.1385 182.16735 373.93164 182.01953 L 380.82812 181.75 z M 26.941406 182.83984 C 27.523869 182.83984 28 183.28985 28 183.83984 C 28 184.38984 27.801239 184.83984 27.558594 184.83984 C 27.316061 184.83984 26.83978 184.38984 26.5 183.83984 C 26.160069 183.28985 26.358943 182.83984 26.941406 182.83984 z M 881.65039 183.23828 C 881.96885 183.28194 882.26613 183.46086 882.44727 183.75391 C 882.76936 184.27488 882.60691 184.96509 882.08594 185.28711 C 881.56497 185.60916 880.87475 185.44675 880.55273 184.92578 C 880.23064 184.40481 880.39309 183.71459 880.91406 183.39258 C 881.04431 183.31208 881.18522 183.26212 881.32812 183.24023 C 881.43534 183.22381 881.54424 183.22373 881.65039 183.23828 z M 351.70898 183.2832 L 351.93164 189.60547 C 352.12908 195.21312 352.31816 195.92773 353.60156 195.92773 C 356.58262 195.92773 357.42163 197.88197 357.10742 204.10742 C 356.91879 207.84515 356.44612 210.16997 355.79297 210.58398 C 354.48874 211.41087 339.00055 211.43022 337.70312 210.60156 L 337.70312 210.60742 C 336.38003 209.7678 335.79529 186.53044 337.05469 184.83789 C 337.69033 183.98364 339.72519 183.62647 344.8125 183.48047 L 351.70898 183.2832 z M 618.37891 184.94141 L 624.02734 185.125 C 633.79285 185.44286 633.32227 184.77715 633.32227 198.22656 L 633.32227 209.75977 L 631.35547 210.50586 C 628.37259 211.63994 618.79369 211.46294 618.33398 210.26562 C 618.12498 209.7219 618.05118 203.80163 618.16797 197.10938 L 618.37891 184.94141 z M 315.5625 186.00195 C 317.1568 186.06011 317.60937 186.31465 317.60938 186.81641 C 317.60938 188.42108 310.23134 197.45049 306.4375 200.48828 C 300.59392 205.16734 294.10815 208.0976 285.99219 209.72461 C 276.9935 211.52862 277.54216 211.49339 276.38281 210.33398 C 275.35774 209.3089 275.04084 190.13838 276.03906 189.54492 C 276.35518 189.3567 279.7821 188.95733 283.6543 188.65625 L 290.69336 188.10938 L 290.93359 191.44336 C 291.08375 193.53472 291.54097 194.77734 292.16211 194.77734 C 292.70678 194.77734 294.98165 192.95135 297.2168 190.71875 L 301.28125 186.6582 L 309.44531 186.19727 C 311.12944 186.10187 312.48132 186.03735 313.5625 186.00781 C 314.37338 185.98566 315.03107 185.98257 315.5625 186.00195 z M 652 187.77734 C 652.351 187.75633 652.7495 187.75856 653.20312 187.7793 C 654.41282 187.8346 656.01181 188.02528 658.12305 188.29102 L 665.50586 189.2207 L 665.50586 199.44336 C 665.50586 208.40281 665.33912 209.75479 664.16406 210.36719 C 662.62598 211.16864 646.99903 211.37634 645.82617 210.61133 C 645.3984 210.3324 644.83843 207.31344 644.58203 203.90234 C 644.07788 197.19599 644.56643 195.92773 647.65039 195.92773 C 649.21118 195.92773 649.41543 195.55588 649.42578 192.67188 C 649.43821 189.17666 649.54297 187.92447 652 187.77734 z M 258.74414 191.75195 C 260.0328 191.74395 261.01753 191.87167 261.38867 192.17969 C 262.15821 192.81835 262.4375 195.26127 262.4375 201.35742 C 262.4375 208.78744 262.28059 209.7496 260.95508 210.45898 C 258.8798 211.56964 248.40399 211.47423 247.26367 210.33398 C 245.99379 209.0641 246.02575 195.85675 247.30273 194.24414 C 248.27653 193.0141 254.87815 191.77502 258.74414 191.75195 z M 691.89062 194.39453 C 703.9754 194.39453 707.23763 194.66547 715.00781 196.31055 C 719.98352 197.36424 724.15577 198.22656 724.28125 198.22656 C 724.99501 198.22656 724.38075 209.70986 723.64258 210.16602 C 723.16556 210.46082 719.80434 210.83812 716.17188 211.00586 C 708.14268 211.37701 707.83467 211.47204 707.51953 213.69531 C 707.28293 215.36284 706.91069 215.47608 701.13867 215.61328 C 697.76699 215.69338 694.57765 215.57508 694.05078 215.35742 C 693.52392 215.13708 693.0918 214.31609 693.0918 213.5332 C 693.0918 211.3562 691.92875 211.03315 684.64258 211.19336 C 680.42901 211.28636 677.71807 211.02653 677.39258 210.5 C 676.57529 209.17754 676.36377 197.22498 677.13086 195.73438 C 677.75036 194.53097 679.26447 194.39453 691.89062 194.39453 z M 233.92188 196.20703 C 234.39663 196.19903 234.72436 196.23103 234.85938 196.31445 C 235.27607 196.57184 235.61719 199.8665 235.61719 203.63477 C 235.61719 209.6178 235.44647 210.49678 234.27539 210.56836 C 223.82791 211.20683 215.68068 211.01083 214.92773 210.10352 C 214.4595 209.53931 214.18197 207.23982 214.31055 204.99414 C 214.52991 201.16253 214.70976 200.83575 217.22656 199.66992 C 220.02483 198.37371 230.5983 196.26636 233.92188 196.20703 z M 447.13672 232.88672 L 460.38867 232.91211 L 473.64062 232.9375 L 469.22266 240.55859 C 483.64205 243.91694 495.02811 255.30649 498.38672 269.72656 L 506.06641 265.3125 L 506.04102 278.56445 L 506.01562 291.81641 L 498.39062 287.39453 C 495.03671 301.81728 483.65076 313.20791 469.23047 316.56836 L 473.64062 324.24023 L 460.38867 324.2168 L 447.13672 324.19141 L 451.55469 316.57031 C 437.13276 313.21418 425.74299 301.8274 422.38477 287.40625 L 414.71094 291.81641 L 414.73633 278.56445 L 414.76172 265.3125 L 422.38477 269.73242 C 425.74129 255.31087 437.12742 243.92055 451.54688 240.56055 L 447.13672 232.88672 z M 464.75781 248.25781 L 460.3457 255.86523 L 455.97461 248.26367 C 442.5477 250.18707 431.98909 260.7617 430.08398 274.19531 L 437.68945 278.60742 L 430.08789 282.97852 C 432.00986 296.40715 442.58303 306.969 456.01758 308.87305 L 460.43164 301.26172 L 464.80273 308.86523 C 478.23048 306.94083 488.79366 296.36756 490.69727 282.93359 L 483.08594 278.52148 L 490.68945 274.15039 C 488.76429 260.72467 478.18992 250.16367 464.75781 248.25781 z "
       transform="matrix(0.26458333,0,0,0.26458333,-9.146454,68.029945)" />
  </g>
</svg>
