<?xml version="1.0" encoding="UTF-8" standalone="no"?>
<!-- Created with Inkscape (http://www.inkscape.org/) -->

<svg
   width="241.7865mm"
   height="108.6079mm"
   viewBox="0 0 241.7865 108.6079"
   version="1.1"
   id="svg5"
   inkscape:version="1.2.2 (b0a8486541, 2022-12-01)"
   sodipodi:docname="ThinkMachine_logo_fenix.svg"
   inkscape:export-filename="/home/jhortelano/fading-suns.png"
   inkscape:export-xdpi="96"
   inkscape:export-ydpi="96"
   xmlns:inkscape="http://www.inkscape.org/namespaces/inkscape"
   xmlns:sodipodi="http://sodipodi.sourceforge.net/DTD/sodipodi-0.dtd"
   xmlns="http://www.w3.org/2000/svg"
   xmlns:svg="http://www.w3.org/2000/svg">
  <sodipodi:namedview
     id="namedview7"
     pagecolor="#ffffff"
     bordercolor="#666666"
     borderopacity="1.0"
     inkscape:pageshadow="2"
     inkscape:pageopacity="0.0"
     inkscape:pagecheckerboard="0"
     inkscape:document-units="mm"
     showgrid="false"
     inkscape:zoom="1"
     inkscape:cx="362"
     inkscape:cy="186"
     inkscape:window-width="1920"
     inkscape:window-height="1043"
     inkscape:window-x="1920"
     inkscape:window-y="1080"
     inkscape:window-maximized="1"
     inkscape:current-layer="layer1"
     fit-margin-top="0"
     fit-margin-left="0"
     fit-margin-right="0"
     fit-margin-bottom="0"
     inkscape:snap-global="false"
     inkscape:showpageshadow="2"
     inkscape:deskcolor="#d1d1d1" />
  <defs
     id="defs2" />
  <g
     inkscape:label="Capa 1"
     inkscape:groupmode="layer"
     id="layer1"
     transform="translate(9.146454,-68.029935)">
    <path
       id="path2200"
       style="fill:#000000;stroke-width:2.27706"
       d="m 507.5293,0 c -0.21588,-4.8545996e-4 -0.42534,0.00351163 -0.63086,0.01171875 -2.87728,0.11489973 -4.92377,1.15187355 -11.16016,4.75976565 -4.81912,2.7879639 -9.29585,5.0683594 -9.94922,5.0683594 -2.03142,0 0.46991,1.6826492 4.33985,2.9179682 1.996,0.637146 4.40209,2.013782 5.34765,3.058594 1.49178,1.64843 1.55853,2.40246 0.49414,5.710938 -1.27865,3.974366 -6.93817,14.816109 -10.21093,19.5625 -1.99813,2.897828 -1.08837,3.53287 2.39257,1.669922 1.11096,-0.594486 2.23178,-0.867945 2.49219,-0.607422 0.26052,0.260526 -2.14084,1.949937 -5.33594,3.753906 -3.19513,1.803969 -7.66105,4.533038 -9.92578,6.064453 -3.62456,2.450967 -4.3425,2.618759 -5.99804,1.408203 -1.03423,-0.756381 -1.65683,-1.553368 -1.38282,-1.771484 0.27413,-0.218128 2.07306,-1.395633 3.99805,-2.617188 l 3.5,-2.220703 -3.74609,0.646485 c -2.483,0.428439 -5.12475,0.09222 -7.83985,-0.994141 -2.62579,-1.050724 -5.40788,-1.421821 -7.7539,-1.035156 -5.12776,0.84514 -2.59107,-0.787498 7.05859,-4.542969 8.64076,-3.362823 13.06522,-3.906731 12.13867,-1.492188 -0.41499,1.081456 -0.12173,1.335029 1.03125,0.892579 1.59935,-0.613255 2.08627,0.464453 1.62891,3.591797 -0.16932,1.157801 0.25705,1.067001 1.88281,-0.404297 C 481.05553,42.38625 482,41.102938 482,40.580078 c 0,-0.52286 1.14919,-2.317979 2.55469,-3.988281 3.62173,-4.30419 7.57039,-12.45162 7.66601,-15.820313 0.15338,-5.394187 -1.54649,-6.191142 -11.66992,-5.46875 -4.97813,0.355242 -11.84719,0.60938 -15.26562,0.566407 -3.4184,-0.04299 -10.55586,0.829584 -15.86133,1.9375 -5.30548,1.107927 -10.15904,1.758698 -10.78516,1.447265 -0.62611,-0.311425 -0.0301,0.40657 1.32422,1.59375 1.6639,1.458478 3.38042,2.022893 5.29297,1.742188 2.09427,-0.307359 2.69394,-0.05924 2.30469,0.955078 -0.82167,2.141219 2.18355,2.698053 7.69531,1.425781 6.45018,-1.488877 7.24258,-0.704073 1.76562,1.748047 -3.42799,1.534741 -5.78762,1.817164 -11.89843,1.421875 -5.72757,-0.3705 -9.36342,-0.0046 -14.62305,1.472656 l -7,1.966797 5.43164,1.63086 c 6.34496,1.90445 10.22382,2.074977 11.78125,0.517578 0.64857,-0.648605 1.66988,-0.76374 2.44922,-0.275391 0.73538,0.460853 2.1254,0.707153 3.08789,0.548828 0.96249,-0.158347 1.75,0.138839 1.75,0.660156 0,2.045375 -4.82988,3.894034 -11.64062,4.455079 -5.41497,0.446051 -8.85529,1.451317 -14.22657,4.15625 -3.89605,1.962001 -8.10617,3.583862 -9.35742,3.603515 -2.26523,0.03528 -2.26452,0.03994 0.22461,1.449219 1.37499,0.778488 4.48889,1.725015 6.91992,2.103516 4.03246,0.627816 4.25659,0.809187 2.5586,2.050781 -2.31383,1.691939 -2.11684,1.683882 3.92968,-0.150391 2.69991,-0.819046 5.58345,-1.490234 6.40625,-1.490234 3.26264,0 -2.15145,3.955533 -8.99414,6.570312 -4.9234,1.881328 -6.79139,3.063184 -6.41015,4.056641 0.39431,1.02757 -0.22666,1.34343 -2.32422,1.183594 -1.89835,-0.144647 -4.11161,0.77676 -6.57422,2.736328 -2.0419,1.624792 -5.57909,3.9395 -7.86133,5.144531 l -4.15039,2.191406 6,0.01563 c 3.3,0.0083 7.8,-0.633199 10,-1.425781 5.20362,-1.874668 5.22298,-1.8702 2.66602,0.851562 -1.2008,1.278297 -1.8567,2.653087 -1.45508,3.054688 0.92696,0.92699 -1.63907,2.58739 -4.03125,2.607422 C 407.45906,77.84483 399,83.52393 399,84.996094 c 0,0.582576 0.7875,0.784463 1.75,0.449218 1.4588,-0.508036 1.42671,-0.359843 -0.19141,0.892579 -1.06762,0.826356 -2.64261,1.520164 -3.5,1.539062 -0.85737,0.0195 -2.62635,0.625989 -3.93164,1.349609 l -2.37304,1.316407 2.37304,0.634765 c 3.91019,1.046589 7.37399,0.751647 9.43164,-0.804687 1.87711,-1.41978 4.39906,-2.156887 3.16797,-0.925781 -0.33361,0.333581 -0.0928,1.15586 0.53516,1.828125 0.78951,0.84514 2.39024,0.980504 5.18945,0.4375 5.3119,-1.029846 5.54883,-1.02921 5.54883,0.0332 0,0.498141 -2.13749,2.328768 -4.75,4.066406 -4.25887,2.832907 -5.39006,3.126459 -10.93359,2.84375 -5.74777,-0.292951 -6.07345,-0.197154 -4.65039,1.371093 0.84203,0.92784 1.23437,2.16531 0.87304,2.75 -1.49688,2.422 -18.27556,0.21543 -22.74804,-2.992187 -3.23211,-2.318022 -4.51616,-2.522061 -2.79102,-0.443359 1.83743,2.213936 -0.71306,1.971726 -4.67383,-0.443359 l -3.17383,-1.935547 3.94532,-7.810547 c 7.89414,-15.630724 6.95132,-24.916221 -3.28321,-32.330078 -5.11346,-3.704157 -6.26304,-3.763568 -4.47461,-0.230469 4.16182,8.221799 2.10358,15.837084 -4.83984,17.904297 -4.76508,1.418668 -14.43185,1.673211 -16.39258,0.43164 -0.81641,-0.516937 -1.16584,-1.752653 -0.84375,-2.984375 0.89135,-3.408529 -0.90878,-2.422406 -4.36523,2.390625 -3.10512,4.323791 -11.18897,9.50416 -14.84571,9.511719 -0.85451,0.002 -2.90273,0.813582 -4.55273,1.804688 -8.48085,5.094236 -25.91646,10.027204 -36.37109,10.291015 -5.85417,0.147742 -7.74194,-0.279356 -13.22852,-2.992187 -3.52018,-1.74051 -8.55107,-5.177078 -11.17969,-7.636719 -2.88178,-2.696511 -5.72177,-4.470703 -7.15234,-4.470703 -1.30489,0 -7.02922,1.959664 -12.7207,4.355469 C 213.10431,93.92912 202.3232,97.747826 194,99.310547 c -14.80547,2.779843 -33.02758,4.530313 -47.49414,4.560543 -9.49527,0.0206 -13.47318,0.34133 -12.35156,0.9961 3.72461,2.17428 14.74633,4.1645 29.60351,5.34375 l 15.74219,1.25 -8.5,2.62109 c -22.52141,6.94768 -38.19437,9.62413 -61,10.41602 C 75.264668,125.70421 42.005265,119.57123 13.572266,106.7168 7.4830286,103.96386 1.9374961,101.46813 1.25,101.16992 0.56250402,100.87191 0,101.08956 0,101.6543 c 0,2.61301 28.071694,20.32598 47.25,29.81445 9.819666,4.85828 11.609676,6.37305 7.535156,6.37305 -1.974349,0 -2.050892,0.16203 -0.705078,1.50781 3.216227,3.21623 14.612146,4.62474 42.072266,5.19727 14.658706,0.30553 27.258726,0.95597 27.999996,1.44531 1.06606,0.70378 0.85852,1.29989 -0.99609,2.85547 -3.56927,2.9938 -9.43925,4.23532 -23.15625,4.89843 -11.674847,0.5644 -12.262976,0.68915 -8.916016,1.87305 7.660082,2.70954 20.216606,4.35252 39.230466,5.13477 10.89778,0.44832 20.24291,1.24485 20.76758,1.76953 1.39065,1.39064 -5.56374,6.63535 -14.24414,10.74218 -16.09565,7.61522 -35.89726,10.97601 -61.396484,10.41993 -9.518022,-0.20765 -16.786276,-0.0578 -16.152344,0.33398 2.07636,1.28342 -0.11974,2.07618 -3.826171,1.38086 -2.305323,-0.43249 -3.45584,-1.13645 -3.152344,-1.92773 0.33188,-0.86487 -2.273584,-1.80274 -8.515625,-3.06446 -4.946306,-0.99983 -15.36135,-4.03749 -23.144531,-6.75195 C 2.8034221,167.4319 2,167.23183 2,169.04688 c 0,0.87979 4.3752291,3.32959 11.25,6.29882 6.187502,2.67243 11.461805,5.02765 11.720703,5.23242 1.087786,0.85947 -2.75107,2.23293 -6.279297,2.24805 -5.345423,0.0215 -3.898248,1.40434 5.101563,4.875 10.8624,4.189 25.522496,7.73718 40.433593,9.78516 12.048303,1.65411 12.92809,1.65444 16.5,0.0254 l 3.773438,-1.7207 -2.605469,2.27539 c -1.433348,1.25102 -3.456244,2.77134 -4.49414,3.3789 -2.916322,1.70714 -0.279905,4.05378 6.173828,5.49805 4.744554,1.06178 5.645666,1.00659 7.25,-0.44531 2.39331,-2.1659 3.078716,-2.09757 5.941406,0.59179 2.15142,2.02133 3.403955,2.25 12.314455,2.25 5.45567,0 9.91992,0.14293 9.91992,0.31641 0,0.17367 -0.46297,1.18208 -1.0293,2.24023 -2.28548,4.27045 -9.57545,5.93729 -15.23242,3.48438 -3.165836,-1.37273 -0.79575,2.37766 2.63281,4.16602 4.99469,2.60518 26.42822,1.7519 35.44141,-1.41016 2.52884,-0.88717 -5.85217,7.62822 -9.27344,9.42187 -1.62875,0.85391 -5.22873,1.85825 -8,2.23243 l -5.03906,0.67968 5.18359,1.61133 c 4.61783,1.43524 5.92645,1.45479 12,0.18555 3.74933,-0.78354 9.04663,-2.52666 11.77344,-3.875 3.48824,-1.72479 5.32334,-2.15076 6.1875,-1.4336 0.83687,0.69472 1.86509,0.67975 3.22656,-0.0488 2.9542,-1.58102 10.78578,-1.29901 14.29493,0.51562 2.76981,1.43233 3.01152,1.93216 2.49023,5.14453 -0.8955,5.5183 -3.93554,8.06055 -14.15625,11.83985 -4.17646,1.54446 1.32605,1.56647 10.19531,0.041 7.38057,-1.26935 9.2,-1.96689 11.24414,-4.3125 1.35707,-1.5572 2.14704,-2.02266 1.78125,-1.04883 -0.81217,2.1622 0.15337,2.19408 7.61719,0.25 C 196.24196,237.80195 200,237.42679 200,238.375 c 0,3.06648 -8.02209,9.46484 -11.86719,9.46484 -3.07239,0 -2.62628,1.67407 0.61133,2.29297 3.38581,0.64725 12.36232,-0.74437 15.45898,-2.39648 2.90848,-1.55165 11.14761,-8.33244 15.67188,-12.89649 1.90822,-1.92502 3.95425,-3.51222 4.54688,-3.52734 0.59254,-0.0156 3.10312,-0.99018 5.57812,-2.16406 2.475,-1.17389 6.02451,-2.44695 7.88672,-2.83008 3.29578,-0.67805 3.36653,-0.62363 2.69922,2.03516 -1.02867,4.09852 -8.31447,12.03798 -15.15625,16.51562 -6.73817,4.4098 -7.42969,4.63845 -7.42969,2.4707 0,-2.22799 -1.30681,-1.83258 -4.3125,1.30469 -3.27759,3.42104 -3.40926,4.53335 -0.4375,3.70117 2.17267,-0.60843 2.1641,-0.55996 -0.25,1.39844 -1.375,1.11545 -3.7375,2.54784 -5.25,3.18359 -3.70234,1.55619 -3.46167,2.71804 0.94336,4.5586 3.01336,1.25907 5.54379,1.38719 13.75,0.70117 5.53136,-0.46243 11.24942,-0.73391 12.70703,-0.60352 1.4576,0.13032 5.45431,-0.65928 8.88086,-1.7539 3.42655,-1.09467 7.63376,-2.00649 9.34961,-2.02539 1.71585,-0.0196 5.81407,-0.67863 9.10742,-1.46485 5.71696,-1.36482 8.51172,-3.38507 8.51172,-6.15429 0,-0.70054 0.91102,-1.76207 2.02344,-2.35743 1.87172,-1.0016 1.98075,-0.84634 1.46484,2.08204 -0.53365,3.02906 -0.44258,3.1347 2.16406,2.48046 1.49773,-0.37579 3.24674,-1.39698 3.88477,-2.26953 0.63803,-0.87261 1.67668,-1.26753 2.30859,-0.87695 0.63191,0.39054 4.6941,-0.88919 9.02735,-2.8457 C 301.04358,242.25781 302,242.11859 302,244.93555 c 0,3.64599 -3.87896,7.73289 -10.29297,10.84375 l -6.20703,3.00976 4.22461,0.0274 c 3.14673,0.019 6.4657,-1.17037 13,-4.6543 24.67495,-13.1562 32.02617,-15.64221 40.14258,-13.58203 2.26424,0.57486 3.86948,0.64274 3.5664,0.15234 -1.87534,-3.03439 14.69168,1.87552 23.8711,7.07422 6.35412,3.5986 6.78609,3.72823 3.69531,1.10547 l -3.5,-2.9707 6.02344,2.19921 c 3.31244,1.20998 8.38035,3.66369 11.26367,5.45118 5.40519,3.35123 6.26856,2.35647 4.16992,0.25781 -1.88409,-1.88409 -0.20316,-0.74419 3.29297,-1.26172 2.51698,-0.37259 3.74766,0.0531 5.45312,1.88672 1.10173,1.18451 3.51601,2.64442 4.54102,2.94727 5.45171,2.84592 -7.61402,11.28566 0.49024,6.88867 -0.20905,1.02241 -0.51571,1.79865 -0.75391,2.75195 -5.02085,5.11634 -14.82345,11.10591 -19.97363,13.99917 -1.04255,5.98229 4.29759,5.61334 13.36309,6.51199 -6.17133,16.56599 -13.18903,20.7627 -10.3556,24.61302 2.60849,1.71926 8.76379,1.65389 6.9827,6.81602 -3.45166,10.00416 -3.21417,17.29116 0.38146,11.71368 1.52634,-2.36757 4.75983,-4.30484 7.18548,-4.30484 3.33579,0 3.97681,1.52952 2.63207,6.2779 -3.14416,11.10094 -3.86469,32.3814 -1.32508,39.15709 2.21491,5.90957 2.47438,5.64855 2.5377,-2.56589 0.0754,-9.80915 3.85715,-17.75749 8.44831,-17.75749 1.55493,0 4.07455,6.05389 5.59941,13.45265 3.40633,16.52787 11.09324,36.76752 13.96339,36.76752 1.16821,0 2.12412,-4.07524 2.12412,-9.05659 0,-6.36004 0.18198,-14.9767 4.24195,-17.3711 1.06796,-0.62984 3.52953,3.54101 4.31678,2.76015 1.74487,2.26157 3.93891,9.11123 6.63485,11.75312 2.92847,2.86975 7.27751,6.48514 9.27197,12.46773 4.18225,12.54506 8.66375,6.95603 16.30284,-11.98044 3.35539,-8.31766 -0.0618,-22.93513 9.52111,-22.78435 2.0524,0.0323 7.75974,5.02795 9.99099,11.62016 3.51511,10.38536 6.76115,22.39117 7.27985,5.27424 0.11308,-3.73169 -3.4685,-14.73456 -4.26432,-22.45411 -1.59192,-15.44235 0.38469,-17.21917 11.71478,-10.53715 4.77716,2.81734 5.93069,2.42082 5.93069,-2.03082 0,-3.04035 -7.59393,-19.98077 -8.87485,-22.43252 -2.06479,-3.95213 4.88424,3.02726 11.10738,3.02726 6.29124,0 17.84213,10.13314 7.01884,-10.99924 -10.82328,-21.13238 -2.92778,-7.50181 4.58152,-13.10303 7.43421,-5.54521 -1.14655,-14.52415 -8.98436,-30.17041 9.28518,-0.94593 14.77478,-0.48705 13.71846,-6.54849 -7.78852,-4.3754 -25.11982,-7.71395 -25.0387,-19.64843 0.11185,0.004 0.20951,0.0106 0.39453,-0.002 7.58434,-0.51111 8.69261,-0.36005 10.47852,1.42578 2.10795,2.10796 4.99609,2.68355 4.99609,0.9961 0,-0.54999 1.46247,-1.01834 3.25,-1.04102 4.30571,-0.0549 28.19042,-9.53999 28.60938,-10.79687 0.17975,-0.5393 1.47836,-0.76091 2.88476,-0.49219 1.94472,0.37175 2.23543,0.71695 1.21485,1.44141 -0.92765,0.65839 -0.56995,0.76065 1.1582,0.32812 10.29233,-2.57582 16.43661,-1.28279 31.79102,6.69141 6.4394,3.34424 13.4189,6.96633 15.50781,8.04883 2.08887,1.08249 5.91389,2.14148 8.5,2.35351 l 4.70117,0.38672 -4.45117,-2.05859 c -9.13323,-4.22374 -15.91545,-11.82783 -11.79883,-13.22852 1.78859,-0.60858 7.48057,1.09453 13.01758,3.89649 3.74014,1.89267 5.1948,2.18389 6.75,1.35156 1.56699,-0.83864 1.98242,-0.74622 1.98242,0.43945 0,1.64096 2.94681,3.57031 5.45312,3.57031 1.19127,0 1.42865,-0.62104 0.95704,-2.5 -0.89639,-3.57161 1.03042,-3.11265 3.33593,0.79493 2.24062,3.79759 5.97526,5.21206 17.68946,6.69726 4.18896,0.5311 8.6084,1.49593 9.82031,2.14453 1.2119,0.64861 5.13641,1.33856 8.72266,1.53321 3.58628,0.19475 12.37148,0.71156 19.52148,1.14843 v 0.002 c 13.12883,0.80216 18.27372,0.57402 19.87695,-0.87891 0.48246,-0.43722 -1.09255,-1.325 -3.5,-1.97266 C 703.90858,257.66456 698,253.41423 698,249.82617 c 0,-2.53119 -4.09426,-5.74794 -8.30469,-6.52539 -5.30725,-0.97995 -15.46906,-8.67441 -17.32617,-13.11914 -0.81728,-1.95625 -1.26438,-3.77859 -0.99414,-4.04883 0.75583,-0.75583 7.80346,1.76021 10.7832,3.84961 1.46257,1.02539 3.29084,1.62249 4.0625,1.32617 0.80591,-0.30924 1.95298,0.43561 2.69532,1.74805 1.80884,3.19801 15.70456,14.01731 20.01171,15.58203 4.50792,1.63782 14.81937,1.85443 16.33008,0.34375 0.85652,-0.85667 0.38921,-1.14062 -1.86328,-1.14062 -4.16455,0 -11.0742,-4.64427 -16.40625,-11.02539 -2.46833,-2.95393 -3.81328,-5.07535 -2.98828,-4.71289 13.21092,5.80456 23.53934,9.4815 24.09766,8.57812 0.43706,-0.70715 1.64805,-0.36741 3.5332,0.99024 1.81534,1.30722 5.7409,2.45157 10.69141,3.11718 11.30932,1.52058 12.96743,1.24365 6.67773,-1.11523 -5.94259,-2.22871 -16,-10.9906 -16,-13.93945 0,-3.20591 13.63191,-4.91264 19.51758,-2.44336 8.31666,3.48978 17.24446,4.69373 25.66211,3.46289 4.28829,-0.62703 7.55123,-1.53975 7.25,-2.02735 -0.30134,-0.48763 -1.08325,-0.88764 -1.73828,-0.89062 -3.64884,-0.0171 -9.3204,-2.55945 -11.82422,-5.30078 C 770.29022,220.80859 769,219.09229 769,218.72266 c 0,-0.36968 1.68751,-0.27973 3.75,0.19922 5.93923,1.37914 25.37289,1.05684 28.12109,-0.4668 l 2.37305,-1.31641 -3.32422,-0.66406 C 796.50213,215.79104 792,212.338 792,210.40039 c 0,-0.74513 3.46149,-0.97311 10.89453,-0.71875 l 10.89258,0.37305 1.35742,-2.78321 C 816.97688,203.51017 819,202.97847 819,206.25781 c 0,2.99248 -0.0752,2.97784 6.54492,1.21485 5.62617,-1.49832 9.45508,-3.30824 9.45508,-4.47071 0,-0.42255 -1.68751,-1.75932 -3.75,-2.9707 l -3.75,-2.20313 4.20703,0.62696 c 6.32493,0.94242 29.83244,-2.83557 45.05078,-7.24024 6.85569,-1.98425 17.14285,-6.17923 19.71289,-8.03906 1.86085,-1.34661 1.64113,-1.41252 -2.62304,-0.80273 -7.15548,1.02327 -12.49818,-1.49585 -6.09766,-2.875 3.528,-0.76022 13.25,-6.39361 13.25,-7.67774 0,-1.51744 -1.34397,-1.2378 -12.22266,2.54883 -17.69779,6.16018 -31.70977,8.56904 -53.42773,9.18359 -21.02143,0.59483 -31.84001,-0.60852 -48.33984,-5.375 -10.18995,-2.94368 -25.99354,-9.50044 -31.43946,-13.04492 -3.54508,-2.30729 -3.76136,-2.68026 -2.21289,-3.8125 1.28746,-0.94144 5.92514,-1.12248 18.56641,-0.72461 16.18189,0.50937 16.92187,0.44813 18.63672,-1.55468 1.39751,-1.63219 2.19594,-1.86622 3.67578,-1.07422 1.32862,0.711 2.3191,0.65774 3.32812,-0.17969 1.11504,-0.92534 1.77379,-0.91088 2.94922,0.0644 C 802.70368,159.6691 819,157.0933 819,154.92964 c 0,-0.45816 -4.8375,-1.07516 -10.75,-1.3711 -11.82644,-0.59179 -16.89166,-1.7626 -20.41992,-4.72265 -1.85481,-1.55611 -2.05387,-2.13822 -0.97266,-2.85156 0.74703,-0.49293 13.12204,-1.12865 27.5,-1.41211 14.37797,-0.28362 28.83414,-1.05591 32.12305,-1.7168 6.85326,-1.37715 12.87455,-4.09955 10.51953,-4.75586 -0.825,-0.22991 -2.06993,-0.59518 -2.76562,-0.8125 -0.69574,-0.21732 4.70426,-3.48097 12,-7.25195 7.29569,-3.77099 18.30034,-9.96979 24.45507,-13.77539 11.0829,-6.85282 23.85207,-16.21044 23.11914,-16.943364 -0.20904,-0.209045 -4.86162,1.831834 -10.33789,4.537114 -5.47627,2.70523 -16.03381,6.93908 -23.46289,9.40625 C 834.9306,128.2296 785.99347,128.70706 741.5,114.61323 l -10,-3.16797 11,-0.78125 c 13.62043,-0.96843 28.36298,-3.32279 32.71484,-5.22461 3.06335,-1.33878 2.34388,-1.44169 -10.7207,-1.51757 -14.69015,-0.0855 -34.47734,-2.00529 -47.99414,-4.656255 -8.20407,-1.608983 -20.9799,-6.132722 -39.5,-13.988281 -5.775,-2.44955 -11.49342,-4.450226 -12.70703,-4.445313 -1.21357,0.0048 -4.13859,1.846677 -6.5,4.09375 -2.36141,2.247081 -7.893,5.805249 -12.29297,7.90625 l -8,3.820313 -8.32812,-0.886719 C 619.19521,94.703917 609.00472,91.820278 599.5,87.371094 c -3.85002,-1.80223 -8.12497,-3.615805 -9.5,-4.03125 -5.57987,-1.685911 -10.18961,-4.778604 -13.08594,-8.777344 -3.42731,-4.731817 -6.89716,-7.427947 -5.00195,-3.886719 1.5055,2.813061 1.46275,2.919445 -1.87695,4.646485 -1.93395,1.000082 -2.76787,2.052328 -2.39454,3.02539 0.80784,2.10519 -1.3668,1.85228 -4.36718,-0.507812 -1.39843,-1.099998 -3.40586,-2 -4.45899,-2 -2.77092,0 -7.44616,-2.635856 -9.2539,-5.216797 -1.91021,-2.727039 -1.93231,-6.994471 -0.0625,-12.244141 0.7762,-2.178947 1.2826,-4.090554 1.125,-4.248047 -0.15753,-0.157508 -2.35823,1.086265 -4.89063,2.763672 -5.19076,3.438202 -8.74785,9.570798 -8.70703,15.011719 0.0142,1.88886 1.16904,6.583597 2.56641,10.433594 3.80609,10.486393 3.9861,12.119923 1.48047,13.460937 -2.24315,1.241636 -6.58555,4.404649 -12.42579,6.566409 -21.36041,7.88443 -8.93584,4.02585 -21.35937,7.88476 l -5.21289,1.38867 -4.42188,-8.15039 c -4.49661,-8.28843 -4.40809,-10.193894 0.35547,-7.644527 2.06412,1.104718 2.07767,1.062928 0.59375,-1.806641 -0.8355,-1.615664 -3.78766,-4.977651 -6.56054,-7.470703 C 489.26817,84.075345 487,81.589563 487,81.044922 c 0,-1.429916 2.45687,-2.159876 5.01758,-1.490234 1.96569,0.514022 2.08754,0.352203 1.11719,-1.460938 -1.37534,-2.569788 -6.49182,-6.914973 -9.12891,-7.751953 -2.48096,-0.787419 -2.65822,-3.501953 -0.22852,-3.501953 0.97762,0 2.66517,0.583161 3.75,1.294922 1.15522,0.757935 3.36729,1.068652 5.33789,0.75 l 3.36329,-0.544922 -2.11329,-1.904297 c -2.44259,-2.200192 -2.81601,-5.595703 -0.61523,-5.595703 0.9947,0 1.5,-0.994948 1.5,-2.953125 0,-3.22557 1.85836,-8.046875 3.10156,-8.046875 0.42928,0 1.05866,0.449999 1.39844,1 0.91725,1.48419 2.51855,1.213468 1.92773,-0.326172 C 500.19413,47.29887 506.59088,38.984317 514.42188,33.625 518.54503,30.803152 523,26.658688 523,25.644531 c 0,-0.451804 -2.47502,0.576002 -5.5,2.283203 -5.18668,2.92709 -5.5,2.986997 -5.5,1.064454 0,-1.121318 0.81441,-2.627015 1.81055,-3.345704 3.56307,-2.570604 3.35112,-3.626319 -0.46485,-2.314453 -1.99037,0.68425 -4.02891,1.979319 -4.53125,2.876953 -0.50233,0.897638 -2.20133,2.297362 -3.77539,3.111328 -2.03372,1.051673 -2.72063,2.027457 -2.36914,3.371094 0.36287,1.387635 -0.16681,2.056998 -1.99414,2.515625 -1.36947,0.343714 -3.28621,0.929884 -4.25781,1.302735 -1.32522,0.508486 -1.61663,0.290953 -1.16992,-0.873047 0.32749,-0.853467 0.22088,-1.944308 -0.23633,-2.423828 -0.45725,-0.47952 1.13298,-4.200711 3.5332,-8.269532 7.33459,-12.433481 14.38791,-18.3224054 19.59375,-16.3574215 3.84291,1.4503215 3.85445,-0.6017387 0.0293,-4.8828125 -2.37925,-2.6628132 -3.69828,-3.23708711 -8.25,-3.5859375 -0.6296,-0.04825181 -1.19548,-0.0847307 -1.7207,-0.10351562 C 507.96748,0.00545346 507.74518,4.8545996e-4 507.5293,0 Z m 2.85547,6.0917969 -4.1543,3.8730469 c -4.21312,3.9299452 -5.70472,4.4943512 -8.01367,3.0292972 -2.57972,-1.636876 -0.0257,-3.9236492 6.03515,-5.4042972 z M 486.67188,20.839844 c 0.1627,0 -0.42579,1.512221 -1.30665,3.359375 -1.29297,2.711399 -2.44444,3.551727 -5.98242,4.361328 C 476.97257,29.112093 475,29.211915 475,28.783203 c 0,-1.645954 1.25462,-3.943359 2.1543,-3.943359 0.51772,0 2.80532,-0.899999 5.08203,-2 2.27675,-1.100002 4.27265,-2 4.43555,-2 z m -139.33594,78.61914 c 4.29043,0.06788 4.1455,1.354866 3.83594,9.119136 l -0.22852,5.73829 -6.7168,0.22265 c -5.14343,0.1697 -6.81202,-0.0282 -7.12109,-0.83203 -0.22205,-0.57853 -0.3032,-3.95284 -0.17969,-7.5 l 0.22461,-6.449218 6.68359,-0.222656 c 0.9811,-0.0325 1.83719,-0.06337 2.58399,-0.07422 0.32672,-0.0047 0.63194,-0.0065 0.91797,-0.002 z m -100.88282,0.04687 c 0.37041,-1.8e-4 0.71778,0.01014 1.04102,0.0332 l 3.06445,0.21875 v 7.279296 7.2793 l -6.41601,0.22461 c -5.05959,0.1765 -6.70687,-0.0379 -7.78516,-1.01368 -1.25993,-1.1402 -1.56918,-1.13621 -3.92773,0.0625 -8.35717,4.24819 -18.52968,13.78136 -23.47266,21.99805 -4.27331,7.10358 -8.35559,19.74524 -7.28125,22.54492 0.19472,0.50725 1.10102,1.02819 2.01367,1.15821 1.56049,0.22261 1.65821,0.64445 1.65821,7.09765 0,6.68818 -0.049,6.87418 -1.91602,7.31445 l -1.91406,0.45313 -0.38477,24.48633 -0.38281,24.48633 -7.86719,0.21875 c -6.2704,0.17451 -7.9533,-0.002 -8.29101,-0.87891 -0.23193,-0.6092 -0.28669,-15.70656 -0.1211,-33.55273 0.28203,-30.39908 0.40909,-32.8599 1.98438,-38.88477 5.2275,-19.99332 18.86142,-36.37048 37.44336,-44.97461 6.02569,-2.79012 15.6118,-5.204819 21.3789,-5.517576 0.41194,-0.02234 0.80542,-0.03302 1.17578,-0.0332 z m 328.24805,0.25 0.21875,7.101566 c 0.16403,5.27618 -0.0296,7.18085 -0.76562,7.41016 -0.54274,0.1697 -3.6859,0.52577 -6.98633,0.79101 -5.6112,0.45086 -6.02815,0.38057 -6.41211,-1.08789 -0.54044,-2.06657 -1.72684,-1.98041 -6.14258,0.44336 -13.01662,7.14415 -23.12962,19.70208 -27.3789,34.00196 -0.68882,2.31798 -1.57649,5.22299 -1.97266,6.45507 -1.25322,3.89738 -0.23602,4.27344 11.55664,4.27344 5.82399,0 10.7761,0.30368 11.00586,0.67578 0.30161,0.48828 0.68733,53.02046 0.46094,62.73438 -0.0151,0.74051 -4.42623,0.95897 -19.4336,0.95897 -10.67697,0 -19.64282,-0.23066 -19.92383,-0.51172 -0.71244,-0.71243 -0.61949,-12.69006 0.10743,-13.83398 0.41238,-0.64917 3.988,-1.00227 11.67382,-1.15038 l 11.08008,-0.21289 v -16.85938 -16.85742 l -11.49609,-0.38477 -11.49414,-0.38281 -0.2461,-3.01562 c -0.43804,-5.36648 1.29381,-19.84648 2.93946,-24.57032 4.97329,-14.276 13.17065,-25.59364 24.50976,-33.83789 4.70374,-3.4199 16.35463,-9.45147 18.28907,-9.46875 0.6887,-0.004 2.75964,-0.53619 4.60156,-1.17773 1.84195,-0.64142 6.15187,-1.24005 9.57812,-1.330083 z M 297.49023,114.8125 c 0.67083,-5.1e-4 1.41203,0.0162 2.23047,0.0469 l 6.01172,0.22656 0.73242,2.49023 0.73438,2.49024 h 6.67578 c 3.67152,0 7.22007,0.209 7.88672,0.46484 1.06985,0.41035 1.21086,3.26643 1.19726,24.33008 -0.0163,24.97667 -0.64173,33.20623 -2.63281,34.66211 -1.41167,1.03222 -14.3235,1.98347 -15.21875,1.12109 -0.3442,-0.33146 -0.003,-2.63177 0.75977,-5.11133 1.15896,-3.76717 1.3883,-7.28032 1.39258,-21.36718 l 0.006,-16.85743 h -8.04687 -8.04492 l -0.20313,22.70118 -0.20312,22.70117 -6.80274,1.24609 c -7.87458,1.44076 -7.33329,1.38938 -7.99023,0.73242 -0.28097,-0.28082 -0.51172,-11.47837 -0.51172,-24.88281 v -24.37109 l -2.49023,-0.64453 -2.49024,-0.64649 v -6.84765 -6.84766 l 10.53711,-0.21289 c 10.48738,-0.21203 10.53711,-0.22161 10.53711,-2.01367 0,-2.57384 1.23784,-3.40656 5.93359,-3.41016 z m 306.71289,5.19531 v 27.99805 c 0,15.39855 0.003,28.2563 0.004,28.57226 0.002,0.31597 -3.28159,0.67421 -7.29492,0.79493 -5.41803,0.16327 -7.39387,-0.0393 -7.67578,-0.77149 -0.20901,-0.54417 -0.28885,-13.40169 -0.17774,-28.57226 l 0.20118,-27.58203 7.47265,-0.22071 z m -136.4082,0.0566 c 4.58128,0 4.60547,0.0547 4.60547,10.79493 0,11.4495 0.45474,10.90806 -8.82812,10.50781 l -5.34766,-0.23047 -0.38281,-2.89844 c -0.2109,-1.59443 -0.72894,-2.91928 -1.15039,-2.94336 -1.43505,-0.0816 -4.59043,2.56698 -7.75586,6.50781 -6.18543,7.70087 -8.71875,14.78482 -8.71875,24.38282 0,4.77256 -0.28684,6.88888 -0.95899,7.0957 -0.52683,0.16214 -3.77014,0.48317 -7.20898,0.71289 -4.97692,0.33298 -6.44723,0.18373 -7.20117,-0.72461 -1.38035,-1.66993 -0.30768,-16.23383 1.5957,-21.64844 4.14625,-11.79685 12.56754,-21.40148 23.64844,-26.97265 2.68871,-1.35183 15.17148,-4.58399 17.70312,-4.58399 z m 192.91797,0.0176 c 0.3303,-0.002 0.6372,3.9e-4 0.92383,0.01 4.01274,0.12983 3.90508,1.48129 3.70703,7.46679 l -0.2207,6.6836 -4.59766,0.23437 c -2.52873,0.12888 -4.91016,0.54298 -5.29101,0.92188 -0.4119,0.40981 0.0865,1.71282 1.22851,3.21484 6.57438,8.64835 9.04157,18.17144 9.04297,34.90234 7.9e-4,12.54588 1.14714,11.30673 -9.19531,9.93555 -3.1609,-0.41903 -5.88702,-0.88134 -6.05664,-1.02734 -0.1697,-0.14627 -0.38561,-5.18551 -0.48047,-11.19727 -0.19578,-12.39768 -1.68351,-18.64318 -6.06836,-25.46289 -2.96387,-4.60947 -8.74329,-10.52949 -9.70117,-9.9375 -0.37531,0.23206 -0.68164,10.24031 -0.68164,22.24024 0,17.90124 -0.19207,21.89184 -1.06446,22.22656 -0.5848,0.2245 -3.94625,0.12796 -7.4707,-0.21485 l -6.4082,-0.625 v -29.50195 -29.50195 l 2.77929,-0.23242 c 3.42667,-0.28611 14.1263,2.37721 18.5,4.60547 1.78292,0.90833 4.73922,2.66228 6.56836,3.89648 1.85197,1.24959 3.6156,1.95094 3.98047,1.58398 0.36057,-0.36283 0.76017,-2.7272 0.88867,-5.25585 l 0.23438,-4.59766 5.34765,-0.23047 c 1.1286,-0.0487 2.11388,-0.0928 2.97461,-0.11719 0.37658,-0.0107 0.73026,-0.0174 1.06055,-0.0195 z m 59.86523,0.0312 c 1.35418,-0.015 2.34562,0.1856 2.99805,0.59961 0.73436,0.46622 0.92686,3.11846 0.76563,10.52539 l -0.21485,9.90039 h -6.89648 -6.89649 l -0.24609,-2.68164 c -0.13531,-1.47511 -0.53152,-2.97576 -0.88086,-3.33398 -0.34923,-0.35792 -2.76516,1.48 -5.36914,4.08398 -4.24842,4.24845 -7.94529,10.4047 -10.21289,17.00977 -0.84971,2.47532 1.29707,2.89171 16,3.10351 l 14.50195,0.20899 0.20703,17.43359 0.20508,17.43359 h -4.18359 c -2.30109,0 -4.36946,-0.30008 -4.5957,-0.66601 -0.22602,-0.36624 -1.79242,-0.88632 -3.48047,-1.15625 -3.65598,-0.58462 -3.78379,-0.94087 -4.05274,-11.20508 l -0.1914,-7.2793 -15.70899,-0.38281 -15.70898,-0.38281 0.25976,-7.28125 c 0.25588,-7.18099 1.50193,-13.40408 3.63086,-18.12305 0.59913,-1.32809 1.08985,-2.66251 1.08985,-2.9668 0,-0.30417 1.53815,-2.70934 3.41796,-5.34374 6.11109,-8.56385 14.87816,-14.5837 25.64649,-17.61133 4.39351,-1.2353 7.65914,-1.85979 9.91601,-1.88477 z m -351.71289,0.0215 c 5.33586,-0.0221 15.85315,3.08362 22.69727,7.23828 3.09842,1.8808 5.83009,3.41992 6.07031,3.41992 0.24019,0 0.44276,-1.98286 0.44922,-4.40625 0.006,-2.4234 0.29342,-4.85223 0.63867,-5.39649 0.45475,-0.71683 2.51228,-0.92735 7.46094,-0.76562 l 6.83203,0.22266 0.23047,5.34765 c 0.37077,8.59771 0.2248,8.82813 -5.56445,8.82813 -5.48595,0 -6.63096,0.84302 -4.50391,3.31445 2.42337,2.81575 4.42779,6.0902 6.17969,10.0957 3.37914,7.72604 5.28962,23.67999 3.05664,25.53321 -1.56609,1.2997 -14.35982,1.34473 -15.17773,0.0527 -0.37055,-0.58518 -0.67728,-4.33991 -0.68165,-8.34375 -0.01,-8.67466 -1.23102,-12.7984 -5.94726,-20.07422 -3.16774,-4.88693 -7.16053,-9.04492 -8.68555,-9.04492 -0.41397,0 -0.70898,8.10082 -0.70898,19.52539 v 19.52539 l -1.72266,0.35938 c -0.94829,0.19804 -4.35108,0.57341 -7.56055,0.83593 -5.00175,0.4088 -5.90526,0.29748 -6.32226,-0.78906 -0.62181,-1.62036 -0.64181,-52.72078 -0.0215,-54.33789 0.29907,-0.77934 1.50263,-1.13325 3.28125,-1.14062 z m -111.14648,0.0117 c 0.30084,-0.006 0.58769,-0.003 0.86133,0.008 1.45941,0.0598 2.51679,0.36968 3.00586,0.95898 0.62399,0.7519 0.81169,10.08145 0.66797,33.13086 l -0.20118,32.08594 -1.99414,0.95703 c -1.09774,0.52603 -4.54721,1.04644 -7.66406,1.1582 l -5.66601,0.20508 -0.38477,-7.28125 -0.38281,-7.2793 h -7.66211 -7.66406 l -0.38282,9.5625 c -0.43284,10.8028 0.50327,9.4621 -8.04492,11.53907 -7.1043,1.72611 -7.24101,1.73294 -7.73437,0.44726 -0.97405,-2.53837 0.25703,-37.48117 1.46093,-41.47265 3.90587,-12.94942 12.47477,-23.58535 23.11914,-28.69727 6.70229,-3.21869 14.15337,-5.23118 18.66602,-5.32227 z m 74.06836,0.30079 h 9.96094 9.96093 l 0.20118,28.18164 c 0.15813,22.16386 -0.005,28.24561 -0.76563,28.48047 -0.53202,0.16395 -3.98409,0.5013 -7.67187,0.75 -5.08196,0.34205 -6.72448,0.21906 -6.79493,-0.50977 -0.0492,-0.53086 -0.13524,-10.10183 -0.1914,-21.26953 l -0.10156,-20.30664 -2.51758,-0.74024 -2.51758,-0.74218 0.21875,-6.92188 z m 225.28906,0 h 10.34375 10.3457 v 6.84765 6.84766 l -2.55468,0.66211 -2.55469,0.66211 0.25586,20.65234 c 0.1406,11.35839 0.25586,20.60448 0.25586,20.54688 0,-0.0575 -3.26245,-0.41307 -7.25,-0.79102 -4.13805,-0.39239 -7.4956,-1.0846 -7.82227,-1.61328 -1.17913,-1.90779 -1.4731,-9.23141 -1.25,-31.20899 z m -311.49609,15.711 c -0.42023,0 -2.14268,1.24684 -3.82813,2.76953 -3.44096,3.1087 -7.53944,9.55262 -9.61133,15.11329 -1.17709,3.15926 -1.21984,3.80787 -0.29296,4.39453 1.22316,0.77416 11.41711,0.96341 13.28515,0.24609 1.0276,-0.39439 1.21094,-2.14385 1.21094,-11.49414 0,-6.8208 -0.2911,-11.0293 -0.76367,-11.0293 z m 211.83203,23.10352 c 1.29747,-0.007 2.85138,0.0105 4.70312,0.0508 l 9.90235,0.21484 0.22461,5.54493 c 0.34923,8.61267 0.32495,8.63281 -10.85157,8.63281 -5.18312,0 -9.65453,-0.23067 -9.93554,-0.51172 -0.72767,-0.72771 -0.61237,-11.93735 0.13476,-13.11524 0.34969,-0.55069 1.92985,-0.79567 5.82227,-0.8164 z m 3.95117,20.48047 c 3.74316,-0.0268 7.35792,0.36013 7.67383,1.18359 0.43646,1.13681 -2.09322,6.1219 -5.94531,11.7207 l -2.25782,3.28125 4.06055,0.0117 c 7.48823,0.0189 7.50781,0.0374 7.50781,7.20508 0,3.85557 -0.35488,6.62607 -0.91992,7.19141 -0.95456,0.95455 -10.23961,1.2947 -12.42773,0.45508 -0.92875,-0.35641 -1.21094,-1.60126 -1.21094,-5.32032 0,-2.66955 -0.35309,-5.07012 -0.7832,-5.33593 -0.42981,-0.26571 -1.802,0.37448 -3.04883,1.42382 -6.30059,5.30158 -26.37087,11.37136 -28.97852,8.76368 l -0.002,-0.002 c -1.2827,-1.28266 -1.27209,-28.28062 0.0137,-29.56445 0.56383,-0.56391 3.32101,-0.91992 7.12696,-0.91992 3.80579,0 6.56308,0.35639 7.12695,0.91992 0.56644,0.5664 0.91992,3.34445 0.91992,7.23437 0,3.47328 0.26313,6.47807 0.58594,6.67774 1.25166,0.77359 10.9082,-9.49491 10.9082,-11.59961 0,-0.45339 0.54084,-1.36506 1.20313,-2.02734 0.83151,-0.83154 4.7041,-1.27203 8.44726,-1.29883 z m -58.69726,0.98242 c 0.93962,-0.011 2.00099,0.003 3.18164,0.0391 l 7.16601,0.22071 0.20703,14.33203 c 0.19011,13.06718 0.0895,14.39343 -1.14843,15.02929 -2.21632,1.13843 -19.14872,1.10418 -19.88477,-0.041 -0.91049,-1.42149 -0.23658,-13.1255 0.79492,-13.79492 0.48029,-0.31182 1.29332,-0.41223 1.80664,-0.22461 1.56611,0.57327 1.94611,-1.01962 1.81641,-7.60352 -0.092,-4.67116 0.1625,-6.55097 0.97656,-7.22656 0.54391,-0.45142 2.26512,-0.69747 5.08399,-0.73047 z m 161.11523,0.70312 c 1.02779,0.005 2.31297,0.0766 3.88281,0.17969 8.65901,0.56878 9.44576,0.84156 10.99219,3.83203 1.62641,3.14521 6.9061,8.71157 8.71094,9.1836 1.31282,0.3428 1.46821,-0.16751 1.66992,-5.48047 l 0.22266,-5.85742 7.03125,0.004 c 3.86728,0.003 7.31676,0.2902 7.66406,0.63867 0.34696,0.3481 0.63086,6.18245 0.63086,12.96485 0,9.19899 -0.25612,12.59006 -1.01172,13.3457 -0.55699,0.55707 -1.24717,0.97645 -1.5332,0.9336 -0.28574,-0.0412 -3.38231,-0.55765 -6.88086,-1.14454 v 0.004 c -7.75121,-1.30012 -12.84501,-3.36115 -19.03516,-7.69922 -5.44195,-3.81381 -10.23724,-8.99026 -13.38086,-14.44922 -2.79652,-4.85609 -3.34073,-6.26735 0.0937,-6.4375 0.28622,-0.0142 0.60076,-0.0194 0.94336,-0.0176 z m -182.95313,0.32227 0.21094,13.69336 c 0.12295,8.03097 -0.0983,14.06187 -0.5332,14.58594 -1.04572,1.25998 -13.24264,1.52935 -14.45313,0.31836 -1.33829,-1.33833 -1.31494,-26.1817 0.0254,-27.27735 0.52683,-0.4303 4.06038,-0.90296 7.85352,-1.05078 z m -353.886714,1.08984 c 0.582463,0 1.058594,0.45001 1.058594,1 0,0.55 -0.198761,1 -0.441406,1 -0.242533,0 -0.718814,-0.45 -1.058594,-1 -0.339931,-0.54999 -0.141057,-1 0.441406,-1 z m 854.548824,0.38868 c 0.0539,-2.7e-4 0.10709,0.003 0.16016,0.01 0.31846,0.0437 0.61574,0.22258 0.79688,0.51563 0.32209,0.52097 0.15964,1.21118 -0.36133,1.5332 -0.52097,0.32205 -1.21119,0.15964 -1.53321,-0.36133 -0.32209,-0.52097 -0.15964,-1.21119 0.36133,-1.5332 0.13025,-0.0805 0.2712,-0.13046 0.41406,-0.15235 0.0536,-0.008 0.10822,-0.0114 0.16211,-0.0117 z m -529.78125,0.0547 0.22266,6.32227 c 0.19744,5.60765 0.38652,6.32226 1.66992,6.32226 2.98106,0 3.82007,1.95424 3.50586,8.17969 -0.18863,3.73773 -0.6613,6.06255 -1.31445,6.47656 -1.30423,0.82689 -16.79242,0.8462 -18.08985,0.0176 v 0.006 c -1.32305,-0.83962 -1.90783,-24.07698 -0.64843,-25.76953 0.63564,-0.85425 2.6705,-1.21142 7.75781,-1.35742 z m 266.66993,1.65821 5.64843,0.18359 c 9.76551,0.31786 9.29493,-0.34785 9.29493,13.10156 v 11.53321 l -1.9668,0.74609 c -2.98288,1.13408 -12.56178,0.95708 -13.02149,-0.24024 -0.209,-0.54368 -0.2828,-6.46403 -0.16601,-13.15624 z m -303.71094,1.04882 c 0.33221,-0.001 0.62882,0.002 0.89453,0.0117 1.5943,0.0582 2.04687,0.3127 2.04688,0.81446 0,1.60467 -7.37804,10.63408 -11.17188,13.67187 -5.84358,4.67906 -12.32935,7.60932 -20.44531,9.23633 -8.99869,1.80401 -8.45003,1.76878 -9.60938,0.60937 -1.02507,-1.02508 -1.34197,-20.1956 -0.34375,-20.78906 0.31612,-0.18822 3.74304,-0.58759 7.61524,-0.88867 l 7.03906,-0.54687 0.24023,3.33398 c 0.15016,2.09136 0.60738,3.33398 1.22852,3.33398 0.54467,0 2.81954,-1.82599 5.05469,-4.05859 l 4.06445,-4.06055 8.16406,-0.46093 c 1.68413,-0.0954 3.03601,-0.15992 4.11719,-0.18946 0.40544,-0.0111 0.77326,-0.0165 1.10547,-0.0176 z m 337.89453,1.77149 c 0.2002,5.2e-4 0.41385,0.007 0.64062,0.0176 1.2097,0.0553 2.80869,0.24598 4.91993,0.51172 l 7.38281,0.92968 v 10.22266 c 0,8.95945 -0.16674,10.31143 -1.3418,10.92383 -1.53808,0.80145 -17.16503,1.00915 -18.33789,0.24414 -0.42777,-0.27893 -0.98774,-3.29789 -1.24414,-6.70899 -0.50415,-6.70635 -0.0156,-7.97461 3.06836,-7.97461 1.56079,0 1.76504,-0.37189 1.77539,-3.25585 0.0124,-3.49522 0.11719,-4.74741 2.57422,-4.89454 0.1755,-0.0105 0.3623,-0.0162 0.5625,-0.0156 z m -393.81836,3.99023 c 1.28866,-0.008 2.27339,0.11972 2.64453,0.42774 0.76954,0.63866 1.04883,3.08158 1.04883,9.17773 0,7.43002 -0.15691,8.39218 -1.48242,9.10156 -2.07528,1.11066 -12.55109,1.01525 -13.69141,-0.125 -1.26988,-1.26988 -1.238,-14.47723 0.0391,-16.08984 0.9738,-1.23004 7.57542,-2.46912 11.44141,-2.49219 z m 433.14648,2.64258 c 12.08478,0 15.34701,0.27094 23.11719,1.91602 4.97571,1.05369 9.14796,1.91601 9.27344,1.91601 0.71376,0 0.0995,11.4833 -0.63867,11.93946 -0.47702,0.2948 -3.83828,0.6721 -7.4707,0.83984 -8.0292,0.37115 -8.33721,0.46618 -8.65235,2.68945 -0.2366,1.66753 -0.60884,1.78077 -6.38086,1.91797 -3.37168,0.0801 -6.56102,-0.0382 -7.08789,-0.25586 -0.52686,-0.22034 -0.95898,-1.04133 -0.95898,-1.82422 0,-2.177 -1.16305,-2.50005 -8.44922,-2.33984 -4.21357,0.093 -6.92451,-0.16683 -7.25,-0.69336 -0.81729,-1.32246 -1.02881,-13.27506 -0.26172,-14.76562 0.6195,-1.20341 2.13365,-1.33985 14.75976,-1.33985 z m -457.96874,1.8125 c 0.47471,-0.008 0.80248,0.024 0.9375,0.10742 0.41665,0.25739 0.75781,3.55205 0.75781,7.32032 0,5.98303 -0.17072,6.86201 -1.3418,6.93359 -10.44748,0.63847 -18.59471,0.44247 -19.34766,-0.46484 -0.46823,-0.56421 -0.74576,-2.8637 -0.61718,-5.10938 0.21936,-3.83161 0.39921,-4.15839 2.91601,-5.32422 2.79827,-1.29621 13.37174,-3.40356 16.69532,-3.46289 z m 226.27539,65.96481 c 4.65104,0 5.36537,0.46235 6.78515,4.38867 1.10597,3.05828 3.08237,5.02655 6.52344,6.49609 4.44903,1.90035 5.3665,1.90469 9.28516,0.0488 4.19448,-1.98644 4.47746,-1.93265 7.92968,1.51953 3.45253,3.45249 3.50486,3.73347 1.51758,7.92969 -2.96402,6.25867 -0.0781,13.41271 6.34766,15.73633 4.14429,1.49862 4.58593,2.16045 4.58594,6.85742 0,4.65109 -0.46044,5.36347 -4.38672,6.7832 -3.05828,1.10597 -5.02654,3.08432 -6.4961,6.5254 -1.90072,4.44903 -1.90664,5.36646 -0.0508,9.28515 1.98641,4.19448 1.93265,4.47555 -1.51953,7.92774 -3.45249,3.45256 -3.7335,3.5068 -7.92969,1.51953 -6.25871,-2.9641 -13.41271,-0.0781 -15.73633,6.34765 -1.49862,4.14437 -2.15849,4.58594 -6.85546,4.58594 -4.65109,0 -5.36538,-0.46242 -6.78516,-4.38867 -1.10593,-3.05832 -3.08241,-5.02654 -6.52344,-6.49609 -4.44907,-1.90035 -5.36842,-1.90469 -9.28711,-0.0488 -4.19444,1.98648 -4.47555,1.93265 -7.92773,-1.51953 -3.45249,-3.45249 -3.50486,-3.73347 -1.51758,-7.92969 2.96402,-6.25863 0.0783,-13.41264 -6.34766,-15.73633 -4.1444,-1.49858 -4.58789,-2.16045 -4.58789,-6.85742 0,-4.69697 0.44349,-5.35685 4.58789,-6.85547 6.42622,-2.32365 9.31168,-9.47762 6.34766,-15.73633 -1.98728,-4.19618 -1.93491,-4.4772 1.51758,-7.92969 3.45256,-3.45256 3.7335,-3.5068 7.92969,-1.51953 6.2587,2.96402 13.41267,0.0783 15.73632,-6.34765 1.49862,-4.14422 2.16046,-4.58594 6.85743,-4.58594 z m 0,13.91992 c -16.04687,-2.3e-4 -29.0558,13.00782 -29.05665,29.05469 -2.2e-4,16.04764 13.00901,29.05687 29.05665,29.05664 16.04763,2.2e-4 29.05686,-13.00901 29.05664,-29.05664 -8.5e-4,-16.04687 -13.00977,-29.05491 -29.05664,-29.05469 z"
       transform="matrix(0.26458333,0,0,0.26458333,-9.146454,68.029945)"
       sodipodi:nodetypes="sssssssssssscscccsssscsssscsssssssssscccsssssscssssssssssccsssssssccccssscsccscsscccsssssscssssssccccccsscsssccsssssscccscscsscccccccssscsscscsscccssccssccsscssssscssssssssssssscsscscsssscccccssccccsssccccccssscscssssscsssssssssssssccccsscscscssccsssssssssssccscssssscscssscssssscsscssscccscccsssccssssssssssssssscssssssssssssscccscsssscccssssscsscssssscccccssssssssscccssscssssssssscssssscssssccsccssssssssccccsccscscccccscsccsccccccssssscscsscsssscsscccccccsssccccsscccsccsccccccccccsccccccsscssccccccsscccccsscccssscccssccsccsssscccccssccccsssccsccssssscccscscccccsscssssscscccssssscssscccscsccsccccccccccssccccccccccccccccccccccccsccccsssscssscccsscssccccscssscsscscscsssscccsccssssccsccccssscccsssccccccccssscsscsscscsccsscccsccscsccccccscsssccccscccscscccssssscsccssssccscsscsscscccsssscssscsscsssssscsssssscssssssssssscccccsssssssssccccc" />
  </g>
</svg>
